<?xml version="1.0" encoding="utf-8"?>
<!-- Generator: Adobe Illustrator 24.0.1, SVG Export Plug-In . SVG Version: 6.00 Build 0)  -->
<svg version="1.1" id="Layer_1" xmlns="http://www.w3.org/2000/svg" xmlns:xlink="http://www.w3.org/1999/xlink" x="0px" y="0px"
	 viewBox="0 0 130 130" style="enable-background:new 0 0 130 130;" xml:space="preserve">
<style type="text/css">
	.st0{fill:none;stroke:#000000;stroke-width:2;stroke-miterlimit:10;}
</style>
<g id="XMLID_26_">
	<polygon id="XMLID_19_" class="st0" points="65.5,14.9 21.4,43.1 24.9,93.7 68.6,115.1 108,91.8 108,41.3 	"/>
	<path id="XMLID_27_" class="st0" d="M66,38L41.4,80.4c-0.1,0.2,0,0.6,0.3,0.6l52,0.8c0.3,0,0.5-0.3,0.3-0.6L66.7,38
		C66.5,37.8,66.2,37.8,66,38z"/>
	<path id="XMLID_29_" class="st0" d="M66.7,38l39.2,3.1c1.3,0.1,2.2,1.5,1.7,2.7l-13.8,38"/>
	<path id="XMLID_28_" class="st0" d="M66,14.9V38l-43.5,4.9c-0.3,0.1-0.4,0.4-0.2,0.6l19.4,37.4L25.5,93.7"/>
	<path id="XMLID_47_" class="st0" d="M108.5,91.8l-14.7-10l-23.9,32.3c-0.3,0.5-1,0.5-1.4,0L41.7,80.9"/>
	<path id="XMLID_46_" class="st0" d="M41.7,80.9"/>
	<path id="XMLID_30_" class="st0" d="M93.2,81.8"/>
</g>
</svg>
