<?xml version="1.0" standalone="no"?>
<!DOCTYPE svg PUBLIC "-//W3C//DTD SVG 20010904//EN"
 "http://www.w3.org/TR/2001/REC-SVG-20010904/DTD/svg10.dtd">
<svg version="1.0" xmlns="http://www.w3.org/2000/svg"
 width="700.000000pt" height="700.000000pt" viewBox="0 0 700.000000 700.000000"
 preserveAspectRatio="xMidYMid meet">
<metadata>
Created by potrace 1.11, written by Peter Selinger 2001-2013
</metadata>
<g transform="translate(0.000000,700.000000) scale(0.100000,-0.100000)"
fill="#000000" stroke="none">
<path d="M0 3500 l0 -3500 1435 0 1435 0 0 2000 0 2000 236 0 c208 0 235 -2
230 -15 -3 -9 -67 -104 -142 -211 -80 -114 -133 -201 -130 -209 3 -8 75 -114
161 -235 85 -122 152 -226 149 -232 -4 -6 -75 -108 -157 -227 -82 -119 -152
-222 -154 -228 -3 -7 66 -115 153 -240 86 -126 157 -233 157 -239 0 -6 -71
-113 -157 -238 -87 -125 -155 -233 -153 -240 3 -7 76 -115 162 -239 l156 -226
-156 -222 c-86 -122 -159 -228 -162 -235 -3 -7 66 -115 153 -240 86 -125 157
-232 157 -239 0 -6 -41 -71 -91 -143 -51 -72 -92 -134 -92 -137 0 -3 87 -5
193 -5 l194 0 5 541 c3 298 4 1051 1 1673 -3 622 -2 1278 2 1459 l7 327 274 0
274 0 0 -2000 0 -2000 1430 0 1430 0 0 3500 0 3500 -3500 0 -3500 0 0 -3500z
m3670 2810 c36 -12 77 -28 92 -36 l27 -14 -35 -97 c-133 -368 -175 -814 -115
-1218 21 -140 75 -363 111 -463 l23 -62 458 0 459 0 0 -110 0 -110 -1190 0
-1190 0 0 110 0 110 448 0 448 0 32 98 c129 395 158 859 81 1277 -22 123 -69
297 -105 394 -13 35 -24 65 -24 68 0 9 118 56 175 69 82 19 222 11 305 -16z"/>
</g>
</svg>
