<svg id="Layer_1" data-name="Layer 1" xmlns="http://www.w3.org/2000/svg" width="64" height="64" viewBox="0 0 64 64"><title>Check2</title><path d="M33.53,42.21a10.51,10.51,0,0,1-.2-1.61A16.17,16.17,0,0,1,33.75,39c-.07-.45-.14-.9-.22-1.33a.85.85,0,0,0-.4-.27,4.07,4.07,0,0,1,.1-.87,2.37,2.37,0,0,1-.18-.37c0,.06.07.12.09.17a8.3,8.3,0,0,1,0-1.57l.14,0a14,14,0,0,0,0-2.82c0-.16.07-.31.12-.47a14.08,14.08,0,0,1,0-3.35.75.75,0,0,0-.2,0c0-.27.2-.54,0-.81h-.31a1.39,1.39,0,0,0,.5-.65c0-.27,0-.53,0-.8-.38-.32-.07-.53,0-.76s0-.38,0-.57a.33.33,0,0,1-.27.09q.06-.41.09-.78c.08-1,0-1.91.12-3l0-.28c0-1.4,0-2.8,0-4.2,0-1.21,0-2.42.08-3.63.11-3.15.33-6.3.75-9.42-1.08.4-2.15,0-3.07,1-.5.65-.49,1.84-.88,2.58a3.53,3.53,0,0,1,0,1.37c0,.1,0,.2,0,.3,0,.86,0,1.72.1,2.59,0,.58.08,1.17.14,1.75,0,.12-.21.32-.34.46.08,2.1.17,4.2.25,6.29,0,.16,0,.32,0,.49.7,1.39.17,3.21.13,4.4,0,.21,0,.42,0,.63a6.69,6.69,0,0,1,.06,3.4v.57c.09,0,.4.79,0,1.1,0,.45,0,1.22,0,1.62h-.06s0,.05.06.08v.12a7.37,7.37,0,0,0-.06,2.57v.29a.87.87,0,0,0,.21-.28h0c-.06.24-.23.77-.27,1,0,.47,0,1.61,0,1.72s.2-.14.41-.14A6.65,6.65,0,0,0,30.21,39c0,.17,0,.33,0,.5s-.13.09-.13,0,0-.21,0-.32c0,.31-.09,1.61-.11,1.95a7.43,7.43,0,0,1,.27-1c0,.36,0,.71,0,1.07v0h0c0,1,.09,3,.12,3a7,7,0,0,0,.2,1,.73.73,0,0,1-.2.78,2.49,2.49,0,0,0-.09-1.21c0,1.87.12,3.73.22,5.6s.2,4,.27,6c0,1.16.06,2.31.06,3.47.1.16.15.4.26.47V60a.4.4,0,0,1,.31.54c.2,0,0-.27.1-.27.27,0,.28.15.25.33h0a.64.64,0,0,1,.18.13A2.19,2.19,0,0,0,31.9,60a3,3,0,0,1,.23.62c.16-1.22.33-2.41.53-3.63a30.62,30.62,0,0,0,.53-3.47c.07-.78.09-1.56.11-2.33-.06-.39-.12-.81-.17-1.27-.06-.22.07-.32.19-.43s0-.26,0-.39a35.58,35.58,0,0,1,.48-5.63c0-.33.15-1.19.16-1.28C33.8,42.24,33.61,42.41,33.53,42.21Z" fill="#424242"/><rect width="64" height="64" fill="none"/></svg>