<svg id="Layer_1" data-name="Layer 1" xmlns="http://www.w3.org/2000/svg" width="22.07" height="30.54" viewBox="0 0 22.07 30.54"><title>Fate32</title><path d="M8.67,26.06c2.08-2.17,3.83-4,5.6-5.85,1.28-1.32,1.67-1.32,3,0,2.83,2.65,5.65,5.32,8.47,8,.68.63,1.11,1.35.36,2.16s-1.49.45-2.17-.19l-8.16-7.68c-2.09,2.2-4.09,4.34-6.13,6.45C8.93,29.66,8.35,31,7,30.51s-.88-1.85-.91-2.87Q5.71,16,5.47,4.36a6.22,6.22,0,0,1,.71-2,7,7,0,0,1,2.12.87c2.45,2.19,4.81,4.47,7.28,6.8,2.52-2.67,5-5.28,7.44-7.87.31-.32.62-.77,1-.84a2,2,0,0,1,1.55.24,1.57,1.57,0,0,1,.1,1.53,17.2,17.2,0,0,1-2,2.32c-2.2,2.32-4.39,4.65-6.6,7-1.19,1.23-1.58,1.2-2.8,0-1.91-1.81-3.84-3.61-6.06-5.69C8.34,13.25,8.5,19.43,8.67,26.06Z" transform="translate(-4.97 -0.73)" fill="#fff" stroke="#fff" stroke-miterlimit="10"/></svg>