<svg id="Layer_1" data-name="Layer 1" xmlns="http://www.w3.org/2000/svg" width="11.23" height="15.35" viewBox="0 0 11.23 15.35"><title>Fate</title><path d="M4.44,12.89c1-1.06,1.86-2,2.72-2.85.62-.64.81-.64,1.47,0l4.12,3.88c.33.31.54.66.17,1s-.72.22-1.05-.09l-4-3.73c-1,1.07-2,2.11-3,3.13-.37.37-.65,1-1.31.79s-.43-.9-.44-1.4Q3,8,2.88,2.35a3.27,3.27,0,0,1,.35-1,3.28,3.28,0,0,1,1,.42C5.45,2.84,6.59,4,7.8,5.08l3.61-3.82c.15-.15.3-.37.48-.41a.94.94,0,0,1,.75.12.78.78,0,0,1,0,.74,8.8,8.8,0,0,1-1,1.13C10.63,4,9.57,5.1,8.49,6.21c-.57.6-.76.59-1.36,0L4.19,3.47Z" transform="translate(-2.38 -0.33)" fill="#fff" stroke="#fff" stroke-miterlimit="10"/></svg>