<svg id="Layer_1" data-name="Layer 1" xmlns="http://www.w3.org/2000/svg" width="271.84" height="259.34" viewBox="0 0 271.84 259.34"><title>gc_logoai</title><path d="M112.09,98.34h18.52v52.39a72,72,0,0,1-23.34,12.67,87.81,87.81,0,0,1-27.78,4.41q-20.46,0-36.85-8.92a66.34,66.34,0,0,1-25.76-24.57A67.27,67.27,0,0,1,7.52,99.1a67.74,67.74,0,0,1,9.36-35.31A65.32,65.32,0,0,1,42.73,39.23q16.5-8.83,37.14-8.83a78.63,78.63,0,0,1,29.42,5.28,60.06,60.06,0,0,1,22.48,15.44l-12,11.9Q103.6,47.48,80.64,47.48A57.32,57.32,0,0,0,53,54.1a48.62,48.62,0,0,0-19.2,18.42A51.43,51.43,0,0,0,26.82,99.1a51,51,0,0,0,6.94,26.39A49.28,49.28,0,0,0,53,144a56.21,56.21,0,0,0,27.49,6.72q18.14,0,31.64-8.64Z" transform="translate(-7.52 0.01)" fill="#262626"/><path d="M191.29,158.89a65.9,65.9,0,0,1-25.57-24.57,67.86,67.86,0,0,1-9.26-35.22,67.82,67.82,0,0,1,9.26-35.21,65.74,65.74,0,0,1,25.66-24.57A75.41,75.41,0,0,1,228,30.4,76.88,76.88,0,0,1,257,35.68a59.33,59.33,0,0,1,22.38,15.64L266.82,63.41q-15.24-15.93-38-15.93a55.25,55.25,0,0,0-27.2,6.72,48.85,48.85,0,0,0-19,18.52,51.62,51.62,0,0,0-6.84,26.38,51.66,51.66,0,0,0,6.84,26.39,48.78,48.78,0,0,0,19,18.52,55.25,55.25,0,0,0,27.2,6.72q22.58,0,38-16.12l12.54,12.09a60,60,0,0,1-22.48,15.74,76.42,76.42,0,0,1-29,5.37Q207.59,167.81,191.29,158.89Z" transform="translate(-7.52 0.01)" fill="#262626"/><line y1="195.51" x2="124.26" y2="195.51" fill="none" stroke="#5b5b5b" stroke-miterlimit="10" stroke-width="5.01"/><line x1="148.94" y1="2.51" x2="271.84" y2="2.51" fill="none" stroke="#5b5b5b" stroke-miterlimit="10" stroke-width="5.01"/><path d="M26.41,240.26h3.32v9.4a12.83,12.83,0,0,1-4.19,2.27,15.64,15.64,0,0,1-5,.79,13.62,13.62,0,0,1-6.62-1.6,11.81,11.81,0,0,1-4.62-4.41,12.75,12.75,0,0,1,0-12.65A11.73,11.73,0,0,1,14,229.65a13.9,13.9,0,0,1,6.67-1.59,14.14,14.14,0,0,1,5.28.95,10.85,10.85,0,0,1,4,2.77l-2.15,2.14a9.78,9.78,0,0,0-7-2.79,10.29,10.29,0,0,0-5,1.19,8.7,8.7,0,0,0-3.45,3.3,9.27,9.27,0,0,0-1.24,4.77,9.16,9.16,0,0,0,1.24,4.74,8.82,8.82,0,0,0,3.45,3.32,10,10,0,0,0,4.93,1.21,10.35,10.35,0,0,0,5.68-1.55Z" transform="translate(-7.52 0.01)"/><path d="M41.61,234.85a9.34,9.34,0,0,1,4.12-.83v3.21a5.17,5.17,0,0,0-.76,0,5.66,5.66,0,0,0-4.25,1.6,6.36,6.36,0,0,0-1.54,4.57v9.09H35.86V234.19h3.19v3.07A5.6,5.6,0,0,1,41.61,234.85Z" transform="translate(-7.52 0.01)"/><path d="M62.29,235.88a7.17,7.17,0,0,1,2,5.55v11H61.17V250A5.2,5.2,0,0,1,58.8,252a9.07,9.07,0,0,1-3.65.68,7.68,7.68,0,0,1-4.94-1.49,5.06,5.06,0,0,1-.08-7.76q1.75-1.47,5.6-1.47H61v-.65A4.21,4.21,0,0,0,59.75,238a5.26,5.26,0,0,0-3.67-1.14,9.72,9.72,0,0,0-3.19.54,8.36,8.36,0,0,0-2.63,1.42l-1.38-2.48a10.14,10.14,0,0,1,3.39-1.73,14,14,0,0,1,4.19-.61A8.31,8.31,0,0,1,62.29,235.88ZM59,249.26a4.87,4.87,0,0,0,2-2.39v-2.55H55.87q-4.21,0-4.22,2.83a2.54,2.54,0,0,0,1.07,2.16,4.93,4.93,0,0,0,3,.8A6.15,6.15,0,0,0,59,249.26Z" transform="translate(-7.52 0.01)"/><path d="M85.84,236a7.9,7.9,0,0,1,2.06,5.9v10.51H84.57V242.32a5.55,5.55,0,0,0-1.28-4A4.8,4.8,0,0,0,79.62,237a5.76,5.76,0,0,0-4.26,1.57,6.16,6.16,0,0,0-1.55,4.5v9.4H70.48V226.89h3.33v9.89a6.81,6.81,0,0,1,2.71-2,9.31,9.31,0,0,1,3.76-.73A7.6,7.6,0,0,1,85.84,236Z" transform="translate(-7.52 0.01)"/><path d="M106.58,235.88a7.17,7.17,0,0,1,2,5.55v11h-3.15V250a5.15,5.15,0,0,1-2.37,1.94,9.07,9.07,0,0,1-3.65.68,7.68,7.68,0,0,1-4.94-1.49,5.06,5.06,0,0,1-.08-7.76q1.75-1.47,5.61-1.47h5.26v-.65A4.21,4.21,0,0,0,104,238a5.26,5.26,0,0,0-3.67-1.14,9.66,9.66,0,0,0-3.18.54,8.15,8.15,0,0,0-2.63,1.42l-1.39-2.48a10.24,10.24,0,0,1,3.39-1.73,14.06,14.06,0,0,1,4.19-.61A8.34,8.34,0,0,1,106.58,235.88Zm-3.31,13.38a4.87,4.87,0,0,0,2-2.39v-2.55h-5.13q-4.22,0-4.22,2.83A2.54,2.54,0,0,0,97,249.31a4.93,4.93,0,0,0,3,.8A6.13,6.13,0,0,0,103.27,249.26Z" transform="translate(-7.52 0.01)"/><path d="M143.21,236c1.35,1.33,2,3.31,2,5.92v10.51h-3.32V242.32a5.72,5.72,0,0,0-1.23-4,4.51,4.51,0,0,0-3.51-1.35,5.29,5.29,0,0,0-4,1.57,6.31,6.31,0,0,0-1.49,4.5v9.4h-3.32V242.32a5.72,5.72,0,0,0-1.23-4,4.52,4.52,0,0,0-3.52-1.35,5.29,5.29,0,0,0-4,1.57,6.27,6.27,0,0,0-1.49,4.5v9.4h-3.33V234.19H118v2.73a6.46,6.46,0,0,1,2.63-2.16,8.93,8.93,0,0,1,3.71-.74,8.15,8.15,0,0,1,3.8.86,6.07,6.07,0,0,1,2.57,2.52,7,7,0,0,1,2.89-2.48,9.39,9.39,0,0,1,4.17-.9A7.48,7.48,0,0,1,143.21,236Z" transform="translate(-7.52 0.01)"/><path d="M165.43,251.12a11.64,11.64,0,0,1-4.58-4.41,12.79,12.79,0,0,1,0-12.64,11.67,11.67,0,0,1,4.6-4.4,13.53,13.53,0,0,1,6.58-1.61,13.82,13.82,0,0,1,5.19.95,10.65,10.65,0,0,1,4,2.81L179,234a9,9,0,0,0-6.82-2.86,9.94,9.94,0,0,0-4.88,1.2,8.74,8.74,0,0,0-3.41,3.33,9.73,9.73,0,0,0,0,9.47,8.65,8.65,0,0,0,3.41,3.32,9.84,9.84,0,0,0,4.88,1.21,9.1,9.1,0,0,0,6.82-2.89l2.25,2.17a10.74,10.74,0,0,1-4,2.82,13.8,13.8,0,0,1-5.21,1A13.43,13.43,0,0,1,165.43,251.12Z" transform="translate(-7.52 0.01)"/><path d="M187.89,251.45a8.65,8.65,0,0,1-3.41-3.32,10,10,0,0,1,0-9.61,8.55,8.55,0,0,1,3.41-3.31,10.7,10.7,0,0,1,9.81,0,8.63,8.63,0,0,1,3.39,3.31,10,10,0,0,1,0,9.61,8.73,8.73,0,0,1-3.39,3.32,10.55,10.55,0,0,1-9.81,0ZM196,249a5.66,5.66,0,0,0,2.2-2.27,7.46,7.46,0,0,0,0-6.72,5.61,5.61,0,0,0-2.2-2.25,6.76,6.76,0,0,0-6.34,0,5.76,5.76,0,0,0-2.21,2.25,7.37,7.37,0,0,0,0,6.72,5.82,5.82,0,0,0,2.21,2.27,6.61,6.61,0,0,0,6.34,0Z" transform="translate(-7.52 0.01)"/><path d="M224,234.19v18.26h-3.15v-2.76a6.62,6.62,0,0,1-2.65,2.19,8.23,8.23,0,0,1-3.58.78,8,8,0,0,1-5.78-2q-2.12-2-2.11-5.94V234.19h3.32v10.13a5.65,5.65,0,0,0,1.28,4,4.78,4.78,0,0,0,3.67,1.36,5.5,5.5,0,0,0,4.16-1.58,6.23,6.23,0,0,0,1.52-4.48v-9.44Z" transform="translate(-7.52 0.01)"/><path d="M230.37,226.89h3.32v25.56h-3.32Z" transform="translate(-7.52 0.01)"/><path d="M254.53,235.19a8.49,8.49,0,0,1,3.31,3.28,9.61,9.61,0,0,1,1.2,4.85,9.75,9.75,0,0,1-1.2,4.88,8.42,8.42,0,0,1-3.31,3.28,9.56,9.56,0,0,1-4.77,1.18,8.68,8.68,0,0,1-3.74-.8,7.14,7.14,0,0,1-2.81-2.3v2.89H240V226.89h3.32V237a7.15,7.15,0,0,1,2.77-2.19,8.9,8.9,0,0,1,3.64-.74A9.66,9.66,0,0,1,254.53,235.19ZM252.65,249a5.82,5.82,0,0,0,2.21-2.27,7.29,7.29,0,0,0,0-6.72,5.76,5.76,0,0,0-2.21-2.25,6.71,6.71,0,0,0-6.32,0,5.59,5.59,0,0,0-2.22,2.25,7.54,7.54,0,0,0,0,6.72,5.64,5.64,0,0,0,2.22,2.27,6.57,6.57,0,0,0,6.32,0Z" transform="translate(-7.52 0.01)"/><path d="M279.36,234.19l-8.9,20.08a9,9,0,0,1-2.75,3.93,6.3,6.3,0,0,1-3.79,1.14,8.27,8.27,0,0,1-2.62-.43,5.39,5.39,0,0,1-2.09-1.26l1.42-2.48a4.65,4.65,0,0,0,3.29,1.34,3.2,3.2,0,0,0,2-.63,5.55,5.55,0,0,0,1.47-2.19l.59-1.28-8.1-18.22h3.46l6.41,14.61,6.33-14.61Z" transform="translate(-7.52 0.01)"/></svg>