<?xml version="1.0" encoding="UTF-8" standalone="no"?>
<!DOCTYPE svg PUBLIC "-//W3C//DTD SVG 1.1//EN" "http://www.w3.org/Graphics/SVG/1.1/DTD/svg11.dtd">
<svg width="100%" height="100%" viewBox="0 0 100 170" version="1.1" xmlns="http://www.w3.org/2000/svg" xmlns:xlink="http://www.w3.org/1999/xlink" xml:space="preserve" xmlns:serif="http://www.serif.com/" style="fill-rule:evenodd;clip-rule:evenodd;stroke-linejoin:round;stroke-miterlimit:2;">
    <rect x="0" y="0" width="100" height="169.5"/>
    <path d="M50,34.75L93.5,59.75L93.5,109.75L50,134.75L6.5,109.75L6.5,59.75L50,34.75Z" style="fill:rgb(20,20,20);fill-rule:nonzero;"/>
    <path d="M0,-50L43.5,-25L43.5,25L0,50L-43.5,25L-43.5,-25L0,-50Z" style="fill:rgb(20,20,20);fill-rule:nonzero;"/>
    <path d="M100,-50L143.5,-25L143.5,25L100,50L56.5,25L56.5,-25L100,-50Z" style="fill:rgb(20,20,20);fill-rule:nonzero;"/>
    <path d="M0,119.5L43.5,144.5L43.5,194.5L0,219.5L-43.5,194.5L-43.5,144.5L0,119.5Z" style="fill:rgb(20,20,20);fill-rule:nonzero;"/>
    <path d="M100,119.5L143.5,144.5L143.5,194.5L100,219.5L56.5,194.5L56.5,144.5L100,119.5Z" style="fill:rgb(20,20,20);fill-rule:nonzero;"/>
</svg>
