<svg id="Layer_1" data-name="Layer 1" xmlns="http://www.w3.org/2000/svg" viewBox="0 0 330 330">
    <title>Coin</title>
    <ellipse cx="159.63" cy="158.32" rx="157.92" ry="156.71" fill="#fff"></ellipse>
    <path d="M159.9.5C72,.5.5,72,.5,159.9S72,319.3,159.9,319.3s159.4-71.51,159.4-159.4S247.79.5,159.9.5Zm153.45,184-9-1.58a146.41,146.41,0,0,0,1.78-20.54h9.12A156.51,156.51,0,0,1,313.35,184.47Zm-6.61,26.3-8.57-3.12a145.81,145.81,0,0,0,5.52-20.82l9,1.59A153.33,153.33,0,0,1,306.74,210.77ZM295.62,235.5l-7.89-4.56a144.49,144.49,0,0,0,9.08-19.53l8.57,3.11A154.58,154.58,0,0,1,295.62,235.5Zm-15.24,22.43-7-5.86a146.83,146.83,0,0,0,12.34-17.66l7.89,4.56A156.16,156.16,0,0,1,280.38,257.93ZM239,293.63l-4.56-7.89a146.83,146.83,0,0,0,17.66-12.34l5.86,7A156.16,156.16,0,0,1,239,293.63Zm-24.45,11.75-3.11-8.57a144.49,144.49,0,0,0,19.53-9.08l4.56,7.89A154.58,154.58,0,0,1,214.52,305.38Zm-26.1,7.28-1.59-9a146.17,146.17,0,0,0,20.82-5.52l3.11,8.57A152.86,152.86,0,0,1,188.42,312.66ZM109,306.74l3.12-8.57A146,146,0,0,0,133,303.69l-1.58,9A153.33,153.33,0,0,1,109,306.74ZM84.3,295.62l4.55-7.89a145.18,145.18,0,0,0,19.54,9.08l-3.12,8.57A155,155,0,0,1,84.3,295.62ZM61.87,280.38l5.85-7a147.74,147.74,0,0,0,17.67,12.34l-4.56,7.89A156.16,156.16,0,0,1,61.87,280.38Zm75,24a146.15,146.15,0,0,0,20.54,1.78v9.12a156.65,156.65,0,0,1-22.13-1.92Zm24.54,1.79a145.79,145.79,0,0,0,21.44-1.79l1.58,9a156,156,0,0,1-23,1.93Zm-1.55-4c-78.46,0-142.29-63.83-142.29-142.28S81.44,17.61,159.9,17.61,302.18,81.44,302.18,159.9,238.35,302.18,159.9,302.18ZM26.57,239.64l7.89-4.56a147.54,147.54,0,0,0,12.37,17.53l-7,5.86A157.19,157.19,0,0,1,26.57,239.64ZM14.72,215.32l8.57-3.12a144.2,144.2,0,0,0,9.16,19.42l-7.9,4.56A154.68,154.68,0,0,1,14.72,215.32Zm-7.42-26,9-1.58a144.45,144.45,0,0,0,5.63,20.74l-8.57,3.11A154.48,154.48,0,0,1,7.3,189.29Zm-.7-54.84,9,1.58a146.64,146.64,0,0,0-1.94,22.32H4.52A155.57,155.57,0,0,1,6.6,134.45Zm6.74-26.22,8.57,3.12a144.09,144.09,0,0,0-5.63,20.74l-9-1.58A155,155,0,0,1,13.34,108.23ZM24.55,83.62l7.9,4.55a144.9,144.9,0,0,0-9.16,19.43l-8.57-3.12A154.68,154.68,0,0,1,24.55,83.62Zm15.3-22.29,7,5.85A147.65,147.65,0,0,0,34.46,84.72l-7.89-4.56A156.39,156.39,0,0,1,39.85,61.33Zm-35.32,101h9.12a146.77,146.77,0,0,0,1.92,21.42l-9,1.58A154.23,154.23,0,0,1,4.53,162.35ZM80.16,26.57l4.56,7.89A147.65,147.65,0,0,0,67.18,46.83l-5.85-7A156.39,156.39,0,0,1,80.16,26.57Zm24.32-11.85,3.12,8.57a144.9,144.9,0,0,0-19.43,9.16l-4.55-7.9A154.68,154.68,0,0,1,104.48,14.72Zm26-7.42,1.58,9a144.09,144.09,0,0,0-20.74,5.63l-3.12-8.57A155,155,0,0,1,130.51,7.3Zm81.05,6-3.11,8.57a144.45,144.45,0,0,0-20.74-5.63l1.58-9A154.83,154.83,0,0,1,211.56,13.34Zm24.62,11.21-4.56,7.9a144.2,144.2,0,0,0-19.42-9.16l3.12-8.57A155.25,155.25,0,0,1,236.18,24.55Zm22.29,15.3-5.86,7a147.54,147.54,0,0,0-17.53-12.37l4.56-7.89A157.19,157.19,0,0,1,258.47,39.85Zm-74.7-24.28a146.64,146.64,0,0,0-22.32-1.94V4.52a155.57,155.57,0,0,1,23.9,2.08Zm-26.32-1.92A146.77,146.77,0,0,0,136,15.57l-1.58-9a154.23,154.23,0,0,1,23-2.07ZM293.63,80.83l-7.89,4.56A147.74,147.74,0,0,0,273.4,67.72l7-5.85A156.16,156.16,0,0,1,293.63,80.83Zm11.75,24.44-8.57,3.12a145.18,145.18,0,0,0-9.08-19.54l7.89-4.55A155,155,0,0,1,305.38,105.27Zm7.29,26.11-9,1.58a146,146,0,0,0-5.52-20.81l8.57-3.12A154.64,154.64,0,0,1,312.67,131.38Zm-6.51,27a145.56,145.56,0,0,0-1.79-21.44l9-1.59a156.11,156.11,0,0,1,1.93,23ZM277.81,58.8l-7,5.85a146.39,146.39,0,0,0-15.16-15.24l5.86-7A157.25,157.25,0,0,1,277.81,58.8ZM58.27,42.43l5.86,7A146.1,146.1,0,0,0,49.41,64.13l-7-5.86A157.9,157.9,0,0,1,58.27,42.43ZM42.43,261.53l7-5.86a146.39,146.39,0,0,0,15.24,15.16l-5.85,7A157.25,157.25,0,0,1,42.43,261.53ZM261,277.81l-5.86-7a145.27,145.27,0,0,0,15.69-15.69l7,5.86A156.94,156.94,0,0,1,261,277.81Z" fill="#1d1d1b" stroke="#fff" stroke-miterlimit="10"></path>
    <path d="M72.6,176.28C55.72,101.82,117,74.84,128.42,71.26l1.92-.56c-21.81,0-42,2.28-58.58,11.83C57,91,37.91,108.77,36.76,129.41c6.29-17,24-26.75,39.84-31.09l-.4.37C58.85,109,44,128.56,39.79,146.62c-3.88,16.73-4,33.13-.22,45.06-1.11-10.07,4.78-29.11,10.21-33.67-6.65,45.5,23.68,80.35,52.3,91.26,18.89,7.2,54.73,9.54,85.33-4.21C129.29,251.41,83.55,224.56,72.6,176.28Z" fill="none" stroke="#221f20" stroke-miterlimit="10" stroke-width="2"></path>
    <path d="M194.72,170.11c4.46,1.8,9.32,2.08,12.74-1.54,4.52,3.3,9,.88,11-1.76a13.21,13.21,0,0,0,2.23-7.49c-1.78,2.39-5,2.59-8.39,2.31a4.37,4.37,0,0,0,2.83-4c-1.59,2.35-8.63,2.31-8.4-4.17.16-4.25-2.11-9.53-4.44-11.68-6-5.54-6.1-14.33-4.64-19.87,3,5.29,10.66,3.63,17,8.67,4.8,3.83,5.12,8.45,8.64,11,4.13,2.95,7,1.41,11.09,6.12.45,1.07-.71,3.59-2.14,4.23,1.48.46,4.88-.78,5-1.43.61,1.67-1.55,5.6-4.16,6.85,1-.06,1.79-.12,2.54-.23a10.22,10.22,0,0,0,6.22-3.43c5.41.74,6.17-5.36,5.88-8-.59-5.31-4.72-7.67-10.62-9.32-3.66-1-7.89-7.4-10.17-10.44-3-4-2.48-9.69-4.28-14.38h0c-.65-3.06-4.32-7.34-7.1-10.25-7-36.49-38.84-50.06-52.18-50.47,16.45,4.47,26.17,18.71,27,28.54-4.52-5.47-13.41-12.82-29.13-18.7-17.89-6.69-52-6.1-76.77,9.85,8.5-3.59,37.68-9.71,57.46-.2-20.92,4.32-39.95,16-50.83,35.17-12.9,22.7-13.15,57.16-1.34,79.78,26.7,51.08,86.22,60.59,131,33.4-48.73,18.08-87.56-3.76-104.31-32.56-7-12.07-9.11-27.23-5.33-43.92,4.26-18.84,27-36.77,52.16-31-10.82-.2-21.29,3.19-27.19,8.9,23-7.28,35.07,1.78,40.72,8.59-4.59-2.62-18.7-4.07-29.92,2.42,17.52-3.93,25,5,36.18,9,18.82,6.72,10.78,18.47,19.71,24.07C202.25,169.13,196.84,170.44,194.72,170.11Zm20.34-58.65c1.63,2.79.86,7.8,5.64,8.61-5.95.52-10.47-2.64-11.32-6.38-.4-1.8-.14-3.4-.79-4.76C209.88,108.5,213.52,108.81,215.06,111.46Z" fill="none" stroke="#221f20" stroke-miterlimit="10" stroke-width="2"></path>
    <path d="M157.31,33.13A124.64,124.64,0,0,0,87.18,54.6,114,114,0,0,1,144.4,39.3c63.25,0,116.21,53,116.21,116.21s-53,112.84-116.21,112.84a114.57,114.57,0,0,1-106.49-72.3A125.21,125.21,0,1,0,157.31,33.13Z" fill="none" stroke="#221f20" stroke-miterlimit="10" stroke-width="2"></path>
    <path d="M213.18,144.26a17.32,17.32,0,0,0,4.89,4.31,13.53,13.53,0,0,1,4.62,4.56c1.77,3.42.57,7.79,2.25,11.26,1.23,2.53,3.77,4.13,6.26,5.43s5.14,2.52,7,4.67c1.31,1.55,2.09,3.5,3.42,5a9.13,9.13,0,0,0,6.27,3.08c2.39.14,4-.22,6.59-2.33a6.49,6.49,0,0,1-9.69-4.68c-.45-4.19-2.82-5.35-4.37-6a12.12,12.12,0,0,1,11.73,3.32c-.7-2.08-3.21-5.05-8.4-6.11-1.89-.39-4.76-.08-6.88-.67a10.11,10.11,0,0,1-5.58-3.3c-2.44-3.26-1.38-8.25-3.9-11.47-2.1-2.68-5.81-3.36-8.84-4.91a13.29,13.29,0,0,1-6.37-6.37S212.41,143.11,213.18,144.26Z" fill="none" stroke="#221f20" stroke-miterlimit="10" stroke-width="2"></path>
</svg>