<svg id="Layer_1" data-name="Layer 1" xmlns="http://www.w3.org/2000/svg" width="64" height="64" viewBox="0 0 64 64"><title>Check1</title><path d="M32.55,61.62c.26-.55.05-.58.26-1l-.06,0c.3-2.18.49-4.36.61-6.56-.13-1.47,0-3.06,0-4.59s-.13-3.42-.26-4.83a2,2,0,0,1,.19-.87c-.06-1.3,0-3-.05-4.41,0,0,0,.05,0,.07,0-.78.18-1.36.16-2.12-.05,0-.05-.12-.08-.17A22.26,22.26,0,0,0,33,33.24c.3,0,.48-3.14.24-3.15a13.21,13.21,0,0,0,.31-2.61,9,9,0,0,0-.33-.88c.11-.24-.09-.29-.06-.58.5-.75.3-1.19.13-.8-.06-.61,0-1.23,0-1.77,0-.25-.06-.5-.1-.76a.42.42,0,0,1,.15-.44c-.06-.56.06-.4.12-1,.17-.14-.25-1.45-.2-1.61l0,.09c0-.67.38-1.12.4-1.77.15-1.83.06-3.82.14-5.5-.18,0,0,.37-.2.39,0-1,.28-2,.32-3a2.71,2.71,0,0,1,.2-.49c.08-.32-.08-.18,0-.42l.16,0c-.13-.34.19-.51.12-.83-.06,0-.07-.13-.06-.25.17,0,0-.35.15-.34h0a.53.53,0,0,1,0-.21c-.06-.13-.51-1.35-.58-1.48l0-.07c0-.18-.13-.26-.16-.15V5.36l0,0V5.16a.11.11,0,0,1,.17,0,.62.62,0,0,1-.06-.4,8.52,8.52,0,0,1-.44,1.18c-.06-.15,0-.43,0-.59a4.24,4.24,0,0,0,.3-.93c0-.07-.2-.12-.11-.27s0-.18.09-.32a.9.9,0,0,1,0,.46c.15,0,.11-.38.15-.5s0-.35,0-.54c.1,0,.11,0,.13-.12l0,0,0,0a.34.34,0,0,1,0-.14c0-.13,0-.2-.09-.15s-.06,0-.08,0c-.14-.29-.28-.63-.28-.56a.06.06,0,0,1-.08,0h0s-.08,0-.09,0l0,0c0,.54-.87-.46-.93.18.2-.28.2.09.21.37a.6.6,0,0,0-.21.37c0,.18.07.11.11.14s-.08.29-.18.27c.12.14-.08.22,0,.39s0,0,.11.09,0,.54-.07.72-.26.28-.41.13c0-.34.24.12.21-.23-.22.16,0-.31-.22-.37A.75.75,0,0,0,32,5l0,0A1.07,1.07,0,0,1,32,5.6c-.07,0-.13,0-.15-.08l0,.23s.05.06.07,0a.31.31,0,0,1,0,.3,10.88,10.88,0,0,0,.27,1.18.43.43,0,0,1-.05.18,11.25,11.25,0,0,0-.22-1.17c-.1.14.37,1.87.22,2s0,.27.1.24c0,.21-.16-.06-.24.09s0,0,0,0l-.1.15c.12.32-.05.79.11,1.13a1.2,1.2,0,0,1-.32-.43l0,0s-.05-.21-.13-.21a1,1,0,0,0,0,.6l-.06.12h0c0,.07-.06.06-.09,0l0,0c-.24.13.14.81,0,1.19,0,.11,0,0,.08.14-.1.39-.17.66-.24,1.06.11.13.15.14.26,0l0,.3c-.27-.27-.27.58-.54.27a.6.6,0,0,0,0,.45c.07,0,.18,0,.18.25s-.07.23-.16.48c-.09.06-.12,0-.19,0,.11.38-.21.33-.19.69s0,.67.18.68c0,.3-.13.3-.25.28l0,.24c0-.79.06-1.63.14-2.46-.56,1.8-1.07,3.93.05,5.3-.61.16-.91,1.91-.77,1.94a10.38,10.38,0,0,1,.27,1.1,27.16,27.16,0,0,1-.08,7.52c0,.18,0,.41-.06.66a14.17,14.17,0,0,0-.22,3.3c-.08,1.19-.16,2.31-.25,3,0,.21-.05.43-.07.65l.12-.73c.15.91.29,1.74.39,2.54a1.8,1.8,0,0,0,.3-.51l-.07.41a6.06,6.06,0,0,1,.33,1.63c-.14-.08-.17.23-.19.52l.09-.12c-.07,1.07,0,2.3,0,3.25a.53.53,0,0,1-.1.3l.09.91c-.18-.07-.17.76-.27.32.2.68.06,1.38.26,2a67.79,67.79,0,0,0,.36,7.2l.06-.06a8.79,8.79,0,0,1,.31,2.6c.23.73.34,1.76.7,2,0,.84.22,1.18.31,2C32.38,61,32.4,62,32.55,61.62Z" fill="#424242"/><rect width="64" height="64" fill="none"/></svg>