<?xml version="1.0" standalone="no"?>
<!DOCTYPE svg PUBLIC "-//W3C//DTD SVG 1.1//EN" "http://www.w3.org/Graphics/SVG/1.1/DTD/svg11.dtd" >
<svg>
<metadata>
Created by FontForge 20120731 at Tue Jul  9 19:49:16 2019
 By www
</metadata>
<defs>
<font id="ModestoW01-Expd" horiz-adv-x="880" >
  <font-face 
    font-family="ModestoW01-Expd"
    font-weight="400"
    font-stretch="normal"
    units-per-em="1000"
    panose-1="2 0 5 5 5 0 0 2 0 4"
    ascent="800"
    descent="-200"
    x-height="608"
    cap-height="761"
    bbox="-29 -227 1697 908"
    underline-thickness="20"
    underline-position="-133"
    unicode-range="U+0020-2122"
  />
<missing-glyph horiz-adv-x="0" 
 />
    <glyph glyph-name=".notdef" horiz-adv-x="0" 
 />
    <glyph glyph-name="glyph1" horiz-adv-x="0" 
 />
    <glyph glyph-name="glyph2" horiz-adv-x="0" 
 />
    <glyph glyph-name="space" unicode=" " horiz-adv-x="350" 
 />
    <glyph glyph-name="exclam" unicode="!" horiz-adv-x="349" 
d="M281 88q0 -48 -31 -73t-74 -25t-74 25t-31 73q0 45 31 72t74 27t74 -27t31 -72zM316 733q-9 0 -16.5 -5.5t-9.5 -22.5l-55 -422h-122l-53 422q-2 17 -10 22.5t-17 5.5v28h283v-28z" />
    <glyph glyph-name="quotedbl" unicode="&#x22;" horiz-adv-x="353" 
d="M136 515h-86l-22 261h130zM303 515h-85l-23 261h130z" />
    <glyph glyph-name="numbersign" unicode="#" 
d="M402 430l-35 -108h102l36 108h-103zM768 430h-113l-36 -108h117l-32 -98h-116l-66 -199h-150l66 199h-103l-65 -199h-144l65 199h-116l37 98h112l35 108h-121l35 99h119l69 205h141l-68 -205h104l68 205h150l-67 -205h115z" />
    <glyph glyph-name="dollar" unicode="$" 
d="M770 292q0 -98 -71.5 -149t-207.5 -62v-108h-110v106q-32 1 -60 5t-50 7.5t-37 6.5t-20 3q-9 0 -20.5 -2t-19.5 -5l-55 205l37 11q12 -23 27 -39.5t39.5 -27.5t63 -16.5t98.5 -5.5q50 0 81.5 4.5t49 11.5t24 16t6.5 18q0 14 -17.5 22t-67.5 18q-46 9 -83.5 16t-81.5 16
q-37 7 -70.5 20.5t-59 34.5t-40.5 50t-15 68q0 91 70 138.5t201 57.5v98h110v-96q60 -2 92 -7t42 -5q11 0 23 1t20 5l49 -187l-35 -11q-10 15 -22.5 27.5t-35 21.5t-59.5 14t-96 5q-42 0 -68.5 -3t-41 -8.5t-20 -12.5t-5.5 -14q0 -17 18 -24.5t69 -18.5q45 -9 90.5 -18
t81.5 -17q93 -18 135 -62t42 -108z" />
    <glyph glyph-name="percent" unicode="%" horiz-adv-x="1178" 
d="M365 570q0 16 -6 31.5t-17 27.5t-27 19t-37 7t-37 -7t-27 -19t-16.5 -27.5t-5.5 -31.5t5.5 -31.5t16.5 -27.5t27 -19.5t37 -7.5t37 7.5t27 19.5t17 27.5t6 31.5zM986 192q0 16 -5.5 31.5t-16.5 27.5t-27 19.5t-37 7.5t-36.5 -7.5t-26.5 -19.5t-16.5 -27.5t-5.5 -31.5
t5.5 -31.5t16.5 -27.5t26.5 -19t36.5 -7t37 7t27 19t16.5 27.5t5.5 31.5zM533 570q0 -44 -21.5 -81t-57 -64t-81.5 -42.5t-95 -15.5t-94.5 15.5t-81 42.5t-57 64t-21.5 81t21.5 81t57 64t81 42t94.5 15t95 -15t81.5 -42t57 -64t21.5 -81zM387 -9h-176l574 782h178zM1154 192
q0 -44 -21.5 -81t-56.5 -63.5t-81 -41.5t-95 -15t-95 15t-81.5 41.5t-57 63.5t-21.5 81t21.5 81.5t57 64.5t81.5 42.5t95 15.5t95 -15.5t81.5 -42.5t56.5 -64.5t21 -81.5z" />
    <glyph glyph-name="ampersand" unicode="&#x26;" horiz-adv-x="984" 
d="M381 396q-52 -14 -86.5 -49.5t-34.5 -86.5q0 -24 9 -43t25 -32.5t37 -21t45 -7.5q25 0 43 3t32.5 9.5t27 16t26.5 22.5zM966 328q0 -22 -5.5 -39.5t-14.5 -34.5l-19 2q-1 14 -8 25.5t-30 11.5q-22 0 -39.5 -8t-32.5 -20.5t-28.5 -29.5t-26.5 -35q14 -22 30 -44.5
t29 -40.5q15 -22 30 -42q22 -32 40.5 -39.5t37.5 -7.5v-26h-288l-39 58q-55 -44 -117 -65t-138 -21q-154 0 -235.5 70t-81.5 198q0 55 24 100t61.5 81t84 63.5t91.5 46.5l-152 230h554q10 0 23 2t23 4l66 -198l-28 -9q-11 21 -27 32t-44 11h-208l154 -238q12 16 28 35
t35.5 35.5t43.5 27.5t53 11q44 0 73.5 -11.5t47.5 -31.5t25.5 -46.5t7.5 -56.5z" />
    <glyph glyph-name="quotesingle" unicode="'" horiz-adv-x="186" 
d="M136 515h-86l-22 261h130z" />
    <glyph glyph-name="parenleft" unicode="(" horiz-adv-x="420" 
d="M410 -66q-80 11 -151 44t-124 88.5t-84.5 133.5t-31.5 180q0 108 33 187t88 133.5t125.5 85.5t144.5 42v-67q-43 -23 -75.5 -55.5t-54.5 -79t-33.5 -107.5t-11.5 -139t10.5 -138t32 -105.5t54.5 -78.5t78 -58v-66z" />
    <glyph glyph-name="parenright" unicode=")" horiz-adv-x="421" 
d="M402 380q0 -102 -31.5 -180t-85 -133.5t-125 -88.5t-150.5 -44v66q45 25 78 58t55 78.5t32.5 105.5t10.5 138t-11.5 139t-34 107.5t-55 79t-75.5 55.5v67q74 -11 144.5 -42t125.5 -85.5t88.5 -133.5t33.5 -187z" />
    <glyph glyph-name="asterisk" unicode="*" horiz-adv-x="411" 
d="M267 595v-1l78 -77l-93 -67l-46 100h-1l-44 -100l-95 66l76 78v1l-104 11l33 111l94 -52v1l-15 103h115l-21 -103l1 -1l98 52l30 -115z" />
    <glyph glyph-name="plus" unicode="+" horiz-adv-x="618" 
d="M381 276v-211h-141v211h-211v140h211v211h141v-211h211v-140h-211z" />
    <glyph glyph-name="comma" unicode="," horiz-adv-x="278" 
d="M244 59q0 -36 -13 -66t-36.5 -55t-55.5 -44t-70 -32l-33 55q39 14 58.5 35t27.5 35q-35 4 -61.5 26.5t-26.5 69.5q0 21 8.5 38.5t22.5 29.5t33 18.5t39 6.5q54 0 80.5 -31.5t26.5 -85.5z" />
    <glyph glyph-name="hyphen" unicode="-" horiz-adv-x="382" 
d="M33 272v147h316v-147h-316z" />
    <glyph glyph-name="period" unicode="." horiz-adv-x="278" 
d="M244 82q0 -48 -30.5 -73t-73.5 -25t-74.5 25t-31.5 73q0 22 8.5 40.5t23 31.5t34 20t40.5 7q43 0 73.5 -27t30.5 -72z" />
    <glyph glyph-name="slash" unicode="/" horiz-adv-x="429" 
d="M160 -65h-155l263 893h156z" />
    <glyph glyph-name="zero" unicode="0" 
d="M631 379q0 45 -11.5 86.5t-35.5 72.5t-60 49.5t-84 18.5t-84 -18t-59.5 -49t-35 -72.5t-11.5 -87.5q0 -47 11.5 -88t35 -72t59.5 -48.5t84 -17.5t84 18t60 49t35.5 72t11.5 87zM851 379q0 -82 -29 -154t-82 -125.5t-129.5 -84.5t-170.5 -31q-92 0 -167.5 30t-129.5 83
t-84 125.5t-30 156.5t30 156.5t84 126t129.5 83.5t167.5 30q91 0 166.5 -30t130 -83t84.5 -125.5t30 -157.5z" />
    <glyph glyph-name="one" unicode="1" 
d="M286 0v25q30 0 42 17.5t12 46.5v440q-12 -5 -31 -10t-41 -9.5t-44.5 -7.5t-39.5 -3v134q17 1 48.5 8.5t64.5 22.5t61.5 38.5t39.5 58.5h167q-5 -16 -8.5 -31t-3.5 -31v-610q0 -29 13 -46.5t42 -17.5v-25h-322z" />
    <glyph glyph-name="two" unicode="2" 
d="M742 -9q-11 5 -32 7t-42 2h-583q0 67 25.5 129.5t67.5 115.5t96.5 95.5t113.5 70.5q48 22 78.5 39.5t48 32.5t24.5 29t7 31q0 18 -7 32.5t-24.5 24.5t-47.5 15.5t-76 5.5q-58 0 -100.5 -6.5t-73 -19t-52 -31t-37.5 -41.5l-27 9l55 229q11 -2 23.5 -3t23.5 -1
q18 0 36.5 3.5t45 7t63.5 7t92 3.5q90 0 153 -16t103 -45.5t58 -72t18 -94.5q0 -78 -49.5 -136t-149.5 -103q-41 -18 -75.5 -34.5t-62 -33.5t-46.5 -36t-29 -43h322q29 0 49 14t34 43l26 -7z" />
    <glyph glyph-name="three" unicode="3" 
d="M806 212q0 -106 -98 -167.5t-290 -61.5q-56 0 -96.5 4.5t-69.5 9.5t-48.5 9.5t-32.5 4.5q-25 0 -39 -5l-57 239l29 8q16 -35 42.5 -56.5t62 -34.5t79.5 -17.5t96 -4.5q91 0 143 22.5t52 74.5q0 27 -11 45.5t-30.5 29t-46.5 15t-59 4.5h-64v137h71q42 0 71.5 20t29.5 58
q0 42 -37 58.5t-115 16.5q-63 0 -104.5 -5.5t-69.5 -16t-45.5 -26.5t-32.5 -36l-26 10l54 221q20 -5 48 -5q17 0 36.5 2.5t44.5 5t55.5 5t68.5 2.5q80 0 144 -12.5t109 -38.5t69 -65.5t24 -93.5q0 -63 -37 -103.5t-106 -59.5v-3q39 -6 73 -22t59 -40t39.5 -56.5t14.5 -71.5z
" />
    <glyph glyph-name="four" unicode="4" 
d="M469 618h-2l-181 -319l2 -2h181v321zM794 124q-15 6 -36.5 8t-36.5 2h-40v-43q0 -65 55 -65v-26h-321v26q31 0 42.5 16.5t11.5 48.5v43h-425v113l306 461q11 17 15.5 29.5t6.5 23.5h340v-28q-31 0 -31 -36v-400h53q35 0 54 14.5t36 46.5l23 -8z" />
    <glyph glyph-name="five" unicode="5" 
d="M800 243q0 -66 -27 -115t-77 -81.5t-122.5 -48t-162.5 -15.5q-48 0 -86.5 4.5t-67 9.5t-48.5 9.5t-31 4.5q-10 0 -21 -1.5t-19 -3.5l-52 215l29 11q12 -24 29.5 -41.5t48.5 -29t79.5 -17t121.5 -5.5q96 0 138.5 25.5t42.5 75.5q0 47 -38 71.5t-126 24.5q-45 0 -76.5 -4.5
t-53 -11t-35 -15t-22.5 -16.5l-110 47l81 425h432q17 0 35.5 3t32.5 8l52 -224l-25 -9q-15 32 -40.5 45t-64.5 13h-266l-27 -116q12 3 25 5t29 3.5t37 2.5t50 1q68 0 129 -14.5t106.5 -45.5t72.5 -78t27 -112z" />
    <glyph glyph-name="six" unicode="6" 
d="M593 242q0 49 -40 75.5t-109 26.5q-43 0 -84.5 -9t-70.5 -23q2 -80 40.5 -125t121.5 -45q69 0 105.5 24.5t36.5 75.5zM813 241q0 -60 -27 -108t-75.5 -81t-115.5 -50.5t-147 -17.5q-86 0 -157 25t-122 74t-79 121t-28 166q0 103 33 179.5t90 127.5t132.5 76t160.5 25
q39 0 68 -2.5t50 -5.5t35 -5.5t22 -2.5q24 0 42 5l51 -207l-25 -9q-12 19 -29 32.5t-44.5 22t-68.5 12.5t-102 4q-90 0 -138.5 -44.5t-53.5 -122.5q38 17 87.5 31.5t120.5 14.5t130 -17.5t101 -51t65.5 -82t23.5 -109.5z" />
    <glyph glyph-name="seven" unicode="7" 
d="M828 692q-68 -66 -127.5 -143.5t-104 -160t-70.5 -167.5t-26 -164q0 -31 40 -31v-26h-292q12 90 34.5 172t58.5 156.5t87.5 141t122.5 126.5l-2 1h-375q-28 0 -47.5 -16t-30.5 -41l-29 8l53 225q14 -5 32.5 -8.5t29.5 -3.5h612z" />
    <glyph glyph-name="eight" unicode="8" 
d="M616 231q0 16 -9 31t-29 26.5t-53.5 18t-81.5 6.5t-81.5 -6.5t-54.5 -17.5t-30.5 -26t-9.5 -32q0 -19 9.5 -36t30.5 -29.5t54.5 -19.5t81.5 -7q49 0 82.5 7t53.5 19t28.5 29t8.5 37zM576 548q0 28 -32 50.5t-101 22.5q-37 0 -62.5 -6.5t-42 -17t-24 -24t-7.5 -28.5
t7 -28.5t23 -24t42 -17t64 -6.5q71 0 102 23.5t31 55.5zM846 214q0 -112 -96 -171.5t-307 -59.5q-107 0 -183.5 15t-126 44.5t-73 72.5t-23.5 99q0 34 16 64t42 54.5t59.5 43t68.5 29.5v3q-30 10 -55.5 26t-44.5 37t-30 47t-11 55q0 98 88 151.5t273 53.5q183 0 270.5 -52.5
t87.5 -152.5q0 -31 -11.5 -57t-31 -47t-45 -36.5t-52.5 -25.5v-2q37 -10 70.5 -27.5t59 -42.5t40.5 -55.5t15 -65.5z" />
    <glyph glyph-name="nine" unicode="9" 
d="M592 450q-2 80 -40.5 126t-121.5 46q-69 0 -105.5 -25t-36.5 -74q0 -54 38 -79.5t111 -25.5q43 0 84.5 9t70.5 23zM819 392q0 -103 -30 -179.5t-84.5 -127t-131.5 -75.5t-170 -25q-66 0 -112 7.5t-63 7.5q-24 0 -42 -5l-55 218l25 9q12 -21 29.5 -36.5t45.5 -25.5
t70 -14.5t103 -4.5q97 0 142 44.5t50 121.5q-38 -17 -87.5 -31.5t-120.5 -14.5t-130 16.5t-101 48t-65.5 78.5t-23.5 109q0 60 27 108.5t75 83.5t115 54t147 19q98 0 170.5 -25.5t120.5 -75t72 -121.5t24 -164z" />
    <glyph glyph-name="colon" unicode=":" horiz-adv-x="278" 
d="M244 82q0 -48 -30.5 -73t-73.5 -25t-74.5 25t-31.5 73q0 22 8.5 40.5t23 31.5t34 20t40.5 7q43 0 73.5 -27t30.5 -72zM244 380q0 -48 -30.5 -73t-73.5 -25t-74.5 25t-31.5 73q0 22 8.5 40.5t23 31.5t34 20t40.5 7q43 0 73.5 -27t30.5 -72z" />
    <glyph glyph-name="semicolon" unicode=";" horiz-adv-x="278" 
d="M244 59q0 -36 -13 -66t-36.5 -55t-55.5 -44t-70 -32l-33 55q39 14 58.5 35t27.5 35q-35 4 -61.5 26.5t-26.5 69.5q0 21 8.5 38.5t22.5 29.5t33 18.5t39 6.5q54 0 80.5 -31.5t26.5 -85.5zM244 380q0 -48 -30.5 -73t-73.5 -25t-74.5 25t-31.5 73q0 22 8.5 40.5t23 31.5
t34 20t40.5 7q43 0 73.5 -27t30.5 -72z" />
    <glyph glyph-name="less" unicode="&#x3c;" horiz-adv-x="618" 
d="M67 298v94l484 217v-157l-267 -107l267 -106v-157z" />
    <glyph glyph-name="equal" unicode="=" horiz-adv-x="618" 
d="M85 179v139h448v-139h-448zM85 377v141h448v-141h-448z" />
    <glyph glyph-name="greater" unicode="&#x3e;" horiz-adv-x="618" 
d="M67 85v156l265 106l-265 105v157l484 -215v-95z" />
    <glyph glyph-name="question" unicode="?" horiz-adv-x="592" 
d="M352 89q0 -48 -30.5 -73t-73.5 -25t-74.5 25t-31.5 73q0 22 8.5 40.5t23 31.5t34 20t40.5 7q43 0 73.5 -26.5t30.5 -72.5zM562 582q0 -34 -12.5 -60.5t-32 -47.5t-44 -37.5t-48.5 -30.5q-25 -15 -46 -28t-36.5 -26t-24.5 -26.5t-9 -28.5q0 -13 10 -17.5t21 -4.5v-25h-177
l-4.5 18t-2.5 21q0 40 17.5 73.5t59.5 62.5q32 22 52.5 39t32.5 30.5t16.5 25.5t4.5 26t-5.5 26.5t-18 22.5t-34 15.5t-53.5 5.5q-35 0 -61.5 -6t-46 -16.5t-33 -23.5t-22.5 -27l-33 9l50 220q18 -6 48 -6q20 0 55.5 6t106.5 6q128 0 199 -51.5t71 -144.5z" />
    <glyph glyph-name="at" unicode="@" horiz-adv-x="1163" 
d="M623 298q-36 -13 -52.5 -29.5t-16.5 -44.5q0 -18 10 -29t24 -11q16 0 25.5 12t9.5 26v76zM1127 351q0 -58 -18.5 -109.5t-54.5 -90t-89.5 -61t-124.5 -22.5q-39 0 -67.5 4t-49 10.5t-34 15.5t-23.5 19q-18 -17 -47.5 -31t-75.5 -14q-80 0 -117.5 38.5t-37.5 98.5
q0 36 16.5 64t47.5 50.5t74 41t97 33.5v5q0 27 -16 40.5t-56 13.5q-45 0 -66 -18.5t-29 -38.5l-32 8l29 157q24 -9 41 -9q4 0 16.5 1.5t28.5 4t33 4t31 1.5q100 0 144.5 -45t44.5 -118v-197q0 -18 12 -28t44 -10q63 0 98 43t35 137q0 70 -25.5 126t-74.5 95t-120 60t-162 21
t-165.5 -25t-128 -69t-82.5 -104t-29 -130q0 -79 29 -140.5t82.5 -103.5t128 -64t165.5 -22q60 0 112.5 12t100.5 34q13 -24 24 -45l20 -38t17 -30q-66 -26 -131 -39t-143 -13q-128 0 -231.5 32.5t-177.5 91.5t-114 141.5t-40 183.5q0 92 43 173t119 141.5t178.5 95.5
t222.5 35t217.5 -30.5t166.5 -85.5t106.5 -132t37.5 -169z" />
    <glyph glyph-name="A" unicode="A" horiz-adv-x="947" 
d="M459 545h-2l-100 -291q24 -8 47 -12.5t58 -4.5q62 0 106 18zM599 0v28q46 0 46 28q0 8 -2 15t-6 16l-5 11q-37 -9 -77.5 -15.5t-79.5 -6.5q-42 0 -85 7t-78 15l-4 -14q-6 -20 -6 -32q0 -14 10 -19t30 -5v-28h-330v28q27 0 39 12t25 44l238 578q6 15 9.5 25t3.5 16
q0 30 -29 30v28h359v-28q-32 0 -32 -30q0 -9 4.5 -21.5t7.5 -20.5l236 -578q14 -33 26.5 -44t35.5 -11v-28h-336z" />
    <glyph glyph-name="B" unicode="B" horiz-adv-x="860" 
d="M593 238q0 19 -7.5 34t-26 25.5t-49 16.5t-76.5 6h-24.5t-29.5 -0.5t-29 -1.5t-24 -2v-153q12 -1 26.5 -2l29 -2t28 -1.5t22.5 -0.5q86 0 123 22t37 59zM570 532q0 32 -34.5 51.5t-102.5 19.5q-24 0 -55 -2t-51 -4v-136q23 -3 53.5 -3.5t53.5 -0.5q69 0 102.5 20t33.5 55
zM825 230q0 -73 -34.5 -120t-92 -74t-131.5 -37t-152 -10q-118 0 -216 3t-159 8v28q31 0 45.5 13.5t14.5 53.5v565q0 42 -14 57.5t-46 15.5v28q29 2 70 4.5t88.5 4.5t98.5 3t100 1q70 0 142.5 -4t130.5 -23.5t95 -60.5t37 -114q0 -57 -36.5 -94.5t-93.5 -58.5v-3
q30 -9 57.5 -24t48.5 -37.5t34 -53.5t13 -71z" />
    <glyph glyph-name="C" unicode="C" horiz-adv-x="835" 
d="M741 -6q-6 2 -15.5 4.5t-20.5 2.5q-6 0 -25.5 -3.5t-49 -7.5t-68 -7.5t-82.5 -3.5q-98 0 -180 30t-141 83t-91.5 127t-32.5 162q0 85 33.5 158.5t93 127.5t141 84.5t177.5 30.5q48 0 85 -3.5t64.5 -8t46.5 -8t30 -3.5t21 2.5t15 4.5l58 -242l-25 -10q-24 52 -78.5 77
t-155.5 25q-53 0 -102 -15.5t-87 -45.5t-61 -74.5t-23 -101.5q0 -54 20 -97.5t56 -74t86 -46.5t111 -16q51 0 89 5.5t66 17.5t47.5 31t31.5 46l25 -9z" />
    <glyph glyph-name="D" unicode="D" horiz-adv-x="976" 
d="M708 383q0 60 -20 102t-55 68.5t-83 38.5t-103 12q-42 0 -68 -2t-52 -5v-435q24 -3 58 -5t73 -2q55 0 101 14t79 42.5t51.5 71.5t18.5 100zM941 381q0 -86 -27 -158.5t-84.5 -125.5t-149 -83t-220.5 -30q-63 0 -124.5 1.5t-116.5 4t-101 5.5t-78 5v28q30 0 45 14t15 49
v569q0 41 -14.5 57t-45.5 16v28q31 3 75.5 6t97.5 5.5t113.5 4t123.5 1.5q113 0 204 -28.5t154.5 -81t98 -125.5t34.5 -162z" />
    <glyph glyph-name="E" unicode="E" horiz-adv-x="854" 
d="M775 -11q-13 5 -30 8t-32 3h-673v28q32 0 46 14.5t14 51.5v573q0 35 -15.5 50.5t-44.5 15.5v28h667q21 0 37.5 2.5t27.5 6.5l49 -229l-27 -10q-14 29 -35.5 43.5t-53.5 14.5h-378v-119h276q35 0 49.5 11t14.5 34h28v-261h-28q0 24 -14 35t-50 11h-276v-129h376
q35 0 57 15.5t36 45.5l28 -12z" />
    <glyph glyph-name="F" unicode="F" horiz-adv-x="836" 
d="M793 533q-13 27 -33 41.5t-51 14.5h-382v-160h310q37 0 50.5 11.5t13.5 34.5h28v-263h-28q0 26 -13 36.5t-51 10.5h-310v-167q0 -36 13.5 -50t46.5 -14v-28h-347v28q33 0 46.5 13.5t13.5 50.5v575q0 38 -14 52t-46 14v28h668q20 0 35 3t26 8l49 -230z" />
    <glyph glyph-name="G" unicode="G" horiz-adv-x="961" 
d="M941 349q-30 0 -45 -15t-15 -51v-135q0 -9 2 -23t10 -26q-23 -11 -59.5 -29.5t-84.5 -37.5q-52 -20 -114 -35.5t-133 -15.5q-103 0 -188.5 30t-147.5 83.5t-96.5 128t-34.5 163.5q0 91 37.5 164t101.5 125t148.5 80t177.5 28q40 0 75.5 -4t64 -8.5t47.5 -8t25 -3.5
q11 0 23.5 1t23.5 6l59 -243l-25 -8q-13 25 -31 44t-47.5 32t-75 19.5t-112.5 6.5q-41 0 -86.5 -13.5t-83.5 -41.5t-63.5 -71.5t-25.5 -102.5q0 -57 21.5 -100t56 -72t78.5 -43.5t88 -14.5q48 0 86.5 8t62.5 20v97q0 36 -15.5 51t-44.5 15v28h340v-28z" />
    <glyph glyph-name="H" unicode="H" horiz-adv-x="1003" 
d="M617 0v28q60 0 60 64v197h-348v-197q0 -33 14 -48.5t46 -15.5v-28h-348v28q60 0 60 64v575q0 34 -16 50t-45 16v28h349v-28q-28 0 -44 -15.5t-16 -50.5v-193h348v193q0 32 -15.5 49t-44.5 17v28h346v-28q-27 0 -43.5 -17t-16.5 -49v-575q0 -64 60 -64v-28h-346z" />
    <glyph glyph-name="I" unicode="I" horiz-adv-x="427" 
d="M40 0v28q60 0 60 64v575q0 66 -60 66v28h347v-28q-60 0 -60 -66v-575q0 -32 14 -48t46 -16v-28h-347z" />
    <glyph glyph-name="J" unicode="J" horiz-adv-x="751" 
d="M714 734q-29 0 -44.5 -14.5t-15.5 -52.5v-417q0 -33 2 -64t10 -45q-29 -29 -65.5 -57.5t-80 -51t-95 -37t-109.5 -14.5q-53 0 -98 9.5t-83 26t-70 40t-59 50.5q16 19 37 47t41 55t36.5 49.5t22.5 31.5l25 -14q-2 -5 -4 -11t-2 -12q0 -20 10 -39t28.5 -33.5t45.5 -23
t61 -8.5q21 0 42.5 5t39 16t28.5 30t11 48v419q0 40 -13.5 53t-45.5 13v28l345 1v-28z" />
    <glyph glyph-name="K" unicode="K" horiz-adv-x="957" 
d="M626 0q-48 78 -91.5 159.5t-79.5 175.5l-128 -110v-131q0 -38 15.5 -52t44.5 -14v-28h-347v28q31 0 45.5 15t14.5 51v573q0 37 -13 51.5t-47 14.5v28h347v-28q-32 0 -46 -15t-14 -51v-217h7l217 215q21 19 21 38q0 11 -8 21t-25 10v27h393v-27q-26 0 -44.5 -11t-42.5 -34
l-210 -205q12 -34 39 -88.5t59 -113.5t64.5 -113.5t57.5 -88.5q12 -17 23.5 -27.5t21.5 -16t20 -7t19 -1.5v-28h-313z" />
    <glyph glyph-name="L" unicode="L" horiz-adv-x="798" 
d="M730 -10q-13 5 -30 7.5t-32 2.5h-628v28q29 0 44.5 15.5t15.5 50.5v573q0 66 -60 66v28h347v-28q-29 0 -44.5 -16.5t-15.5 -49.5v-496h346q28 0 47.5 17t31.5 43l28 -11z" />
    <glyph glyph-name="M" unicode="M" horiz-adv-x="1158" 
d="M772 0v28q35 0 47.5 13t12.5 51v336h-2l-213 -345h-81l-233 341h-3v-332q0 -35 14 -49.5t46 -14.5v-28h-320v28q34 0 47 13t13 51v577q0 37 -11.5 50.5t-48.5 13.5v28h304q1 -11 5 -24.5t13 -27.5l222 -345h2l205 345q17 29 19 52h308v-28q-32 0 -46 -13.5t-14 -50.5
v-577q0 -36 12.5 -50t47.5 -14v-28h-346z" />
    <glyph glyph-name="N" unicode="N" horiz-adv-x="968" 
d="M667 0q0 2 0.5 4t0.5 4q0 28 -24 57l-341 387h-5v-358q0 -35 15 -50.5t45 -15.5v-28h-317v28q29 0 44 15.5t15 50.5v573q0 35 -14 50.5t-46 15.5v28h284q1 -11 7 -26t17 -28l316 -356h5v316q0 38 -14 52t-46 14v28h319v-28q-30 0 -45 -14.5t-15 -51.5v-497v-76
q0 -35 14 -50.5t46 -15.5v-28h-261z" />
    <glyph glyph-name="O" unicode="O" horiz-adv-x="995" 
d="M727 374q0 60 -21.5 103.5t-55 71.5t-74.5 41.5t-79 13.5q-42 0 -83 -14.5t-73.5 -43.5t-52.5 -71.5t-20 -98.5q0 -54 21.5 -95.5t54.5 -69.5t73.5 -42.5t78.5 -14.5t79 13t74.5 40t55.5 68.5t22 98.5zM960 376q0 -98 -40 -173t-105.5 -125t-148.5 -75.5t-170 -25.5
q-86 0 -169 25.5t-148 76t-104.5 125t-39.5 172.5q0 94 40 170t105 129.5t148.5 82t169.5 28.5t169 -27.5t148 -80t105 -129t40 -173.5z" />
    <glyph glyph-name="P" unicode="P" horiz-adv-x="879" 
d="M618 495q0 35 -18.5 55.5t-47 31t-63 13.5t-67.5 3q-19 0 -44 -1t-51 -3v-200q11 -1 25 -2t27.5 -2t25.5 -1.5t20 -0.5q34 0 68.5 4t62.5 16t45 33t17 54zM845 502q0 -66 -28 -116t-80.5 -84.5t-128 -52t-170.5 -17.5h-23.5t-28.5 1t-30.5 1.5t-28.5 2.5v-140
q0 -38 14.5 -53.5t45.5 -15.5v-28h-347v28q29 0 44.5 15t15.5 52v572q0 66 -60 66v28q39 2 85 4.5t94.5 4.5t96.5 3t90 1q108 0 190 -15t137.5 -48t83.5 -84.5t28 -124.5z" />
    <glyph glyph-name="Q" unicode="Q" horiz-adv-x="995" 
d="M727 375q0 61 -22.5 104.5t-57 71t-77.5 40t-83 12.5q-38 0 -77 -14.5t-70.5 -43t-51 -71t-19.5 -98.5q0 -51 20 -91.5t52 -69t71.5 -43.5t77.5 -15q23 0 44.5 3.5t32.5 8.5q-6 22 -17.5 44t-27.5 40t-35.5 29t-41.5 11q-6 0 -14 -1.5t-14 -4.5l-9 13q9 12 20.5 25.5
t26.5 24.5t33 18.5t40 7.5q68 0 108.5 -32t63.5 -77q10 14 18.5 45t8.5 63zM960 373q0 -93 -42 -170t-117 -125q12 -26 28 -38t34 -12q22 0 40.5 11.5t27.5 28.5l14 -6q-3 -35 -12.5 -65.5t-27 -53.5t-44 -36.5t-63.5 -13.5q-38 0 -64.5 10.5t-44.5 26.5t-29.5 35t-20.5 36
q-32 -9 -69.5 -15.5t-76.5 -6.5q-95 0 -178.5 28.5t-145.5 80.5t-98 123.5t-36 158.5q0 97 39 173.5t103.5 130t147 82t168.5 28.5q102 0 187.5 -31.5t148 -87t97 -130.5t34.5 -162z" />
    <glyph glyph-name="R" unicode="R" horiz-adv-x="870" 
d="M613 495q0 61 -48.5 81.5t-144.5 20.5q-23 0 -48.5 -1.5t-44.5 -2.5v-199q20 -2 47 -3.5t49 -1.5q44 0 79.5 5.5t60 18t37.5 32.5t13 50zM557 0q-18 22 -35.5 51t-33 60.5t-28.5 63.5t-22 61h-111v-144q0 -37 15 -50.5t45 -13.5v-28h-347v28q34 0 47 13t13 51v580
q0 31 -12 46t-48 15v28q32 1 80.5 3.5t101 4t101.5 3t81 1.5q89 0 169 -13t140.5 -44t96 -82.5t35.5 -128.5q0 -85 -51 -142.5t-144 -86.5q25 -59 58.5 -109t76.5 -105q11 -14 24 -24t36 -10v-28h-288z" />
    <glyph glyph-name="S" unicode="S" horiz-adv-x="814" 
d="M780 247q0 -136 -102.5 -202t-301.5 -66q-43 0 -82 5t-70 11t-52 11t-27 5q-20 0 -40 -5l-64 262l27 9q12 -31 33.5 -56t54 -42t78.5 -26.5t108 -9.5q57 0 95 5.5t60 15.5t31 23t9 28q0 24 -24.5 38t-80.5 27q-27 6 -48.5 11t-41.5 10t-41.5 10t-49.5 12q-42 10 -79.5 27
t-65.5 43t-44.5 62t-16.5 84q0 59 28 105t79.5 77t124.5 47t163 16q44 0 78 -3.5t58.5 -7.5t39.5 -7.5t21 -3.5q10 0 22 1t22 4l59 -244l-25 -8q-12 26 -37 46.5t-59 35t-75.5 22.5t-87.5 8q-50 0 -82.5 -5t-52 -13.5t-27.5 -20t-8 -24.5q0 -24 28.5 -37t80.5 -26t98 -24
t89 -21q100 -23 149 -78.5t49 -130.5z" />
    <glyph glyph-name="T" unicode="T" horiz-adv-x="895" 
d="M854 530q-14 31 -35 45t-54 14h-204v-497q0 -32 15.5 -48t44.5 -16v-28h-347v28q32 0 46 15t14 49v497h-203q-35 0 -55.5 -14.5t-34.5 -45.5l-29 12l49 231q27 -11 66 -11h641q39 0 66 11l49 -231z" />
    <glyph glyph-name="U" unicode="U" horiz-adv-x="974" 
d="M937 734q-30 0 -45 -15.5t-15 -50.5v-423q0 -34 2.5 -51t8.5 -28q-33 -37 -73 -71t-88.5 -59.5t-107 -40.5t-127.5 -15q-70 0 -129 14.5t-109 39.5t-92 59t-77 73q7 12 9.5 29t2.5 50v422q0 35 -17.5 50.5t-42.5 15.5v28h347v-28q-32 0 -46 -15.5t-14 -50.5v-388
q0 -28 14 -51t37.5 -39t54 -24.5t62.5 -8.5q33 0 66.5 7.5t59.5 23t42.5 39t16.5 55.5v387q0 35 -15 50.5t-45 15.5v27h320v-27z" />
    <glyph glyph-name="V" unicode="V" horiz-adv-x="937" 
d="M925 733q-25 0 -38 -14.5t-24 -39.5l-233 -567q-18 -45 -18 -56q0 -12 7 -20t20 -8v-28h-348v28q14 0 22 8.5t8 22.5q0 8 -17 51l-229 566q-13 32 -27 44.5t-36 12.5v28h339v-28q-21 0 -33 -9.5t-12 -28.5q0 -6 1 -13.5t4 -15.5l171 -460h2l156 461q7 19 7 31
q0 16 -9 25.5t-29 9.5v28h316v-28z" />
    <glyph glyph-name="W" unicode="W" horiz-adv-x="1300" 
d="M1288 733q-23 0 -36 -11t-24 -43l-206 -587q-5 -12 -7.5 -22t-2.5 -17q0 -11 8 -18t19 -7v-28h-334v28q17 0 25.5 9t8.5 23q0 8 -2 16t-7 22l-80 222h-2l-72 -219q-6 -19 -8 -28t-2 -17q0 -14 6 -21t21 -7v-28h-340v28q16 0 22.5 7.5t6.5 19.5q0 16 -10 43l-200 578
q-10 29 -24 43t-36 14v28h337v-28q-21 0 -33 -11t-12 -30q0 -11 3 -20l138 -447h2l150 424h124l146 -425h2l125 451q2 6 3.5 12.5t1.5 11.5q0 17 -10.5 25.5t-28.5 8.5v28h328v-28z" />
    <glyph glyph-name="X" unicode="X" horiz-adv-x="931" 
d="M525 0v28q40 0 40 34q0 12 -7 23t-17 26l-90 139h-2l-95 -155q-6 -10 -10.5 -19t-4.5 -18q0 -13 9.5 -21.5t26.5 -8.5v-28h-357v28q20 0 39 12t43 44l226 299l-221 298q-22 29 -41 40.5t-45 11.5v28h387v-28q-19 0 -29 -9t-10 -23q0 -8 3.5 -15.5t8.5 -15.5l103 -157h2
l102 157q13 19 13 30q0 17 -11 25t-29 8v28h353v-28q-21 0 -43 -12.5t-42 -39.5l-219 -298l222 -299q19 -26 41 -41t42 -15v-28h-388z" />
    <glyph glyph-name="Y" unicode="Y" horiz-adv-x="1013" 
d="M1001 733q-24 0 -42 -12t-37 -41l-304 -457v-131q0 -35 12.5 -49.5t47.5 -14.5v-28h-346v28q35 0 47.5 14.5t12.5 49.5v133l-304 452q-21 32 -37 44t-39 12v28h387v-28q-44 0 -44 -35q0 -12 10 -30l154 -268h2l148 265q8 13 11 20.5t3 18.5q0 29 -45 29v28h363v-28z" />
    <glyph glyph-name="Z" unicode="Z" horiz-adv-x="865" 
d="M780 -10q-15 5 -33 7.5t-33 2.5h-637l-42 76l425 510l-1 3h-313q-29 0 -49 -15.5t-32 -41.5l-24 10l49 230q14 -5 29.5 -8t39.5 -3h628l37 -69l-426 -518l1 -3h326q28 0 49 17.5t31 41.5l25 -10z" />
    <glyph glyph-name="bracketleft" unicode="[" horiz-adv-x="420" 
d="M95 -66v894h311v-67h-130v-761h132v-66h-313z" />
    <glyph glyph-name="backslash" unicode="\" horiz-adv-x="429" 
d="M269 -65l-264 893h156l263 -893h-155z" />
    <glyph glyph-name="bracketright" unicode="]" horiz-adv-x="420" 
d="M12 -66v66h131v761h-129v67h311v-894h-313z" />
    <glyph glyph-name="asciicircum" unicode="^" horiz-adv-x="555" 
d="M394 304l-119 287h-3l-115 -287h-148l203 457h127l207 -457h-152z" />
    <glyph glyph-name="underscore" unicode="_" horiz-adv-x="601" 
d="M-2 -140v104h605v-104h-605z" />
    <glyph glyph-name="grave" unicode="`" horiz-adv-x="793" 
d="M413 678l-141 94h151l92 -94h-102z" />
    <glyph glyph-name="a" unicode="a" horiz-adv-x="762" 
d="M370 408h-1q-14 -38 -27 -74q-11 -31 -23.5 -65t-21.5 -58q14 -5 31 -8.5t43 -3.5q23 0 42 3.5t33 8.5zM480 0v26q20 0 26.5 6.5t6.5 14.5q0 4 -5 16l-5 12q-26 -7 -57.5 -11.5t-63.5 -4.5q-33 0 -67 5t-59 11l-4 -14q-2 -6 -3 -10.5t-1 -7.5q0 -17 33 -17v-26h-277v26
q17 0 26 7t20 32l204 472q8 19 8 24q0 9 -5.5 15t-16.5 6v26h286v-26q-15 0 -19.5 -6t-4.5 -13q0 -3 1.5 -10t6.5 -18l203 -471q11 -25 19.5 -31.5t25.5 -6.5v-26h-278z" />
    <glyph glyph-name="b" unicode="b" horiz-adv-x="683" 
d="M464 193q0 12 -5 22.5t-18 18.5t-36.5 12.5t-60.5 4.5q-8 0 -18.5 -0.5t-21.5 -1t-21 -1.5t-17 -1v-105q16 -2 40 -3t38 -1q69 0 94.5 16t25.5 39zM445 423q0 20 -23.5 33.5t-77.5 13.5q-18 0 -41 -1t-37 -3v-92q15 -2 38 -2.5t40 -0.5q55 0 78 15.5t23 36.5zM665 186
q0 -60 -29 -98t-76.5 -59.5t-108 -29.5t-122.5 -8q-97 0 -177.5 3t-125.5 6v26q23 0 33 9t10 35v462q0 23 -10 36.5t-33 13.5v26q24 2 56.5 3.5t71 3t79.5 2.5t81 1q55 0 114 -3t107.5 -18.5t79.5 -48.5t31 -94q0 -23 -8 -42t-20.5 -34.5t-29 -26.5t-34.5 -17v-1
q21 -6 41 -18.5t35.5 -30.5t25 -42.5t9.5 -55.5z" />
    <glyph glyph-name="c" unicode="c" horiz-adv-x="670" 
d="M596 -15q-6 2 -11 5q-5 2 -11 3.5t-12 1.5q-11 0 -60 -7t-120 -7q-80 0 -146.5 24t-114.5 67.5t-75 102.5t-27 130q0 69 27.5 127.5t76 102t115 68t144.5 24.5q31 0 59.5 -2t52.5 -5t41.5 -5t26.5 -2q7 0 13 1t11 3l10 4l52 -204l-29 -9q-18 42 -61.5 58t-126.5 16
q-41 0 -79.5 -12t-68 -35t-47 -56t-17.5 -76q0 -40 15 -72.5t43 -56t66.5 -36t86.5 -12.5q83 0 126.5 15.5t62.5 58.5l29 -9z" />
    <glyph glyph-name="d" unicode="d" horiz-adv-x="776" 
d="M556 306q0 44 -15.5 75.5t-42.5 51t-64 28.5t-80 9q-32 0 -51.5 -1.5t-36.5 -3.5v-324q17 -2 42 -3.5t55 -1.5q43 0 78.5 10.5t61 31.5t39.5 53t14 75zM757 305q0 -69 -22 -127t-69.5 -100.5t-121.5 -66.5t-179 -24q-52 0 -101.5 1.5t-94 3.5t-81 4t-62.5 4v26
q22 0 32.5 11t10.5 31v464q0 50 -43 50v26q52 4 139 8.5t191 4.5q91 0 165.5 -22.5t126.5 -64t80.5 -99.5t28.5 -130z" />
    <glyph glyph-name="e" unicode="e" horiz-adv-x="688" 
d="M623 -11q-12 5 -27 8t-28 3h-541v26q22 0 32.5 12t10.5 32v467q0 21 -13 33t-31 12v26h537q20 0 33 2t24 7l44 -193l-27 -9q-11 25 -25.5 34.5t-38.5 9.5h-306v-78h225q41 0 45 39h24v-225h-24q-2 18 -13 29t-32 11h-225v-87h306q26 0 41.5 10.5t25.5 34.5l26 -10z" />
    <glyph glyph-name="f" unicode="f" horiz-adv-x="674" 
d="M635 415q-20 45 -62 45h-306v-110h252q20 0 31 8.5t13 28.5h25v-225h-25q-2 18 -12.5 28.5t-31.5 10.5h-252v-132q0 -43 44 -43v-26h-284v26q24 0 33.5 11t9.5 32v468q0 21 -13 33t-31 12v26h538q17 0 30 3t24 8l42 -194z" />
    <glyph glyph-name="g" unicode="g" horiz-adv-x="771" 
d="M755 282q-45 0 -45 -44v-116q0 -11 3.5 -23t11.5 -20q-20 -8 -52 -24t-74 -33t-92.5 -29t-107.5 -12q-83 0 -153 24.5t-120.5 68t-78.5 103.5t-28 132q0 73 31 132t83 100t120.5 63.5t144.5 22.5q32 0 60.5 -3t51 -7t37.5 -7t20 -3q11 0 22.5 2t20.5 8l51 -207l-27 -8
q-10 20 -23.5 35t-37 25t-60 15t-93.5 5q-32 0 -67.5 -10.5t-65 -31.5t-49 -53.5t-19.5 -76.5q0 -42 16.5 -74.5t43 -55t60 -34t68.5 -11.5q37 0 66.5 5.5t46.5 13.5v84q0 20 -11.5 32.5t-32.5 12.5v26h279v-27z" />
    <glyph glyph-name="h" unicode="h" horiz-adv-x="796" 
d="M486 0v26q44 0 44 43v156h-264v-156q0 -43 44 -43v-26h-284v26q43 0 43 43v338v130q0 20 -11 32.5t-32 12.5v26h285v-26q-18 0 -31 -12t-13 -33v-152h263v152q0 20 -11.5 32.5t-32.5 12.5v26h284v-26q-20 0 -31.5 -12t-11.5 -33v-340v-128q0 -43 43 -43v-26h-284z" />
    <glyph glyph-name="i" unicode="i" horiz-adv-x="336" 
d="M26 0v26q24 0 33.5 11t9.5 32v468q0 20 -11.5 32.5t-31.5 12.5v26h284v-25q-18 0 -31 -11.5t-13 -32.5v-470q0 -43 44 -43v-26h-284z" />
    <glyph glyph-name="j" unicode="j" horiz-adv-x="608" 
d="M585 582q-18 0 -31 -11.5t-13 -32.5v-340v-28t1 -25q2 -24 11 -31q-24 -24 -54 -47.5t-66.5 -42.5t-79 -31t-91.5 -12q-89 0 -150 29.5t-108 76.5q14 17 34.5 43t39.5 51q22 29 44 60l22 -15q-6 -12 -6 -20q0 -14 8.5 -27.5t23.5 -25t36.5 -18.5t48.5 -7q16 0 32 3.5
t29 11.5t20.5 21t7.5 33v340q0 45 -43 45v26h284v-26z" />
    <glyph glyph-name="k" unicode="k" horiz-adv-x="768" 
d="M503 0q-42 62 -78 124t-67 131l-91 -75v-111q0 -21 13 -32t31 -11v-26h-285v26q21 0 32 12t11 32v467q0 45 -43 45v26h284v-26q-44 0 -44 -44v-171h1h5l174 173q8 8 11 13t3 10q0 6 -5 12.5t-21 6.5v26h316v-26q-20 0 -34 -10.5t-28 -23.5l-180 -167q16 -38 37.5 -79
t46 -82.5t51 -81.5t52.5 -75q15 -20 29.5 -28.5t31.5 -8.5v-26h-253z" />
    <glyph glyph-name="l" unicode="l" horiz-adv-x="642" 
d="M587 -11q-11 5 -26.5 8t-28.5 3h-506v26q44 0 44 44v467q0 20 -11 32.5t-32 12.5v26h284v-26q-18 0 -31 -11.5t-13 -32.5v-390h278q38 0 59 45l26 -10z" />
    <glyph glyph-name="m" unicode="m" horiz-adv-x="921" 
d="M611 0v26q24 0 34 11t10 32v256h-5l-178 -279h-46l-177 274h-5v-251q0 -20 12 -31.5t33 -11.5v-26h-263v26q24 0 33.5 11t9.5 32v470q0 43 -43 43v26h253q-1 -19 15 -45l171 -269h2l163 269q16 26 15 45h250v-26q-44 0 -44 -43v-470q0 -20 11 -31.5t33 -11.5v-26h-284z
" />
    <glyph glyph-name="n" unicode="n" horiz-adv-x="769" 
d="M521 0q-1 11 -6.5 26t-16.5 26l-252 283h-3v-266q0 -21 13 -32t31 -11v-26h-261v26q21 0 32 12t11 32v467q0 21 -11 33t-32 12v26h237q-1 -10 3.5 -22t13.5 -23l241 -270h3v244q0 21 -10 33t-32 12v26h261v-26q-20 0 -32 -11.5t-12 -32.5v-469q0 -21 12 -32t32 -11v-26
h-222z" />
    <glyph glyph-name="o" unicode="o" horiz-adv-x="793" 
d="M572 299q0 45 -16.5 77.5t-42.5 53.5t-57 31t-61 10q-32 0 -63.5 -11t-56.5 -32.5t-40.5 -53.5t-15.5 -73q0 -40 16.5 -71t42 -52t56.5 -32t61 -11t61 9.5t57 29.5t42.5 51t16.5 74zM774 301q0 -79 -33 -139t-86.5 -100t-121.5 -60.5t-138 -20.5t-137.5 20.5t-120.5 61
t-85.5 100t-32.5 138.5q0 76 32.5 136.5t86 103t121 65t137.5 22.5t137.5 -21.5t121 -63.5t86.5 -103t33 -139z" />
    <glyph glyph-name="p" unicode="p" horiz-adv-x="700" 
d="M484 393q0 24 -13 38t-34.5 21.5t-48.5 10t-54 2.5h-32.5t-35.5 -1v-143q14 -1 36.5 -2t33.5 -1q28 0 55 3t47.5 11.5t33 23t12.5 37.5zM681 399q0 -54 -23.5 -94.5t-66.5 -68.5t-105 -42t-138 -14q-15 0 -40 1t-42 3v-112q0 -46 44 -46v-26h-284v26q22 0 32.5 10.5
t10.5 34.5v466q0 22 -10 33.5t-33 11.5v26q32 2 69.5 3.5t76 3t76.5 2.5t73 1q86 0 153 -12t113 -38t70 -67.5t24 -101.5z" />
    <glyph glyph-name="q" unicode="q" horiz-adv-x="793" 
d="M572 299q0 46 -17 78.5t-43.5 53.5t-59.5 30.5t-64 9.5q-30 0 -60 -11t-54 -32.5t-39 -53.5t-15 -74q0 -38 15.5 -68.5t39.5 -52.5t54 -33.5t60 -11.5q13 0 28 1.5t24 3.5q-7 20 -20.5 36.5t-32.5 16.5q-12 0 -19 -6l-14 16q13 21 38 40.5t60 19.5q31 0 54 -17t38 -41
q13 20 20 46t7 49zM774 298q0 -74 -33.5 -136.5t-90.5 -99.5q14 -29 38 -29q17 0 31.5 9.5t19.5 24.5l23 -9q-2 -29 -11.5 -55t-25 -46t-38 -32t-51.5 -12q-32 0 -54 8.5t-37 21t-25 27t-16 26.5q-23 -7 -51.5 -11.5t-60.5 -4.5q-77 0 -145 23t-118.5 65t-80 100t-29.5 128
q0 78 32 139.5t84.5 104.5t119.5 65.5t137 22.5q82 0 152 -25.5t121 -70t80 -104.5t29 -130z" />
    <glyph glyph-name="r" unicode="r" horiz-adv-x="699" 
d="M480 393q0 42 -35 57t-113 15q-18 0 -36 -0.5t-30 -1.5v-141q13 -2 32.5 -2.5t36.5 -0.5q72 0 108.5 17t36.5 57zM440 0q-15 18 -29.5 41t-27.5 47t-23.5 48.5t-17.5 45.5l-76 1v-114q0 -43 44 -43v-26h-284v26q24 0 33.5 11t9.5 32v472q0 18 -11.5 29.5t-31.5 11.5v26
q25 1 64.5 2.5t81.5 3t81.5 2.5t66.5 1q71 0 136 -8.5t115 -31.5t80 -64t30 -107q0 -68 -39.5 -114.5t-108.5 -69.5q17 -45 42.5 -88.5t59.5 -85.5q9 -11 19 -16.5t27 -5.5v-26h-241z" />
    <glyph glyph-name="s" unicode="s" horiz-adv-x="648" 
d="M630 200q0 -112 -86 -166t-245 -54q-34 0 -65.5 4.5t-56 9.5t-41.5 9.5t-22 4.5q-19 0 -37 -6l-55 220l29 9q9 -25 24 -44.5t40.5 -33.5t63 -21.5t93.5 -7.5q47 0 76 4.5t45 12t21.5 16.5t5.5 17q0 16 -16 24.5t-62 19.5q-40 9 -71 16.5t-73 18.5q-37 9 -68 23t-54 35
t-36 50.5t-13 69.5q0 49 22.5 86t64.5 62t101 37.5t131 12.5q71 0 109 -9.5t49 -9.5q10 0 21 1t19 5l52 -206l-28 -8q-10 21 -25.5 37.5t-40 28t-59.5 17.5t-84 6q-41 0 -65.5 -4t-37.5 -10.5t-17 -14t-4 -14.5q0 -16 20 -24.5t61 -17.5q43 -10 79 -18.5t70 -16.5
q74 -18 119.5 -63.5t45.5 -107.5z" />
    <glyph glyph-name="t" unicode="t" horiz-adv-x="724" 
d="M693 415q-13 26 -26.5 35.5t-38.5 9.5h-167v-391q0 -43 43 -43v-26h-285v26q24 0 34 11t10 32v391h-167q-25 0 -39 -9.5t-27 -35.5l-26 9l43 195q25 -11 58 -11h512q34 0 59 11l44 -195z" />
    <glyph glyph-name="u" unicode="u" horiz-adv-x="774" 
d="M750 582q-21 0 -32.5 -12t-11.5 -33v-342q0 -29 2.5 -41t8.5 -21q-27 -30 -60 -57.5t-73 -48.5t-88 -33.5t-105 -12.5t-105.5 11.5t-90 32t-76 48.5t-63.5 60q6 10 8.5 22t2.5 40v343q0 21 -12.5 32.5t-30.5 11.5v26h283v-26q-21 0 -32 -12.5t-11 -32.5v-314
q0 -20 10.5 -36.5t27.5 -28.5t40 -19t49 -7q27 0 52 6t44.5 18t31.5 29t12 39v314q0 21 -12 32.5t-32 11.5v26h263v-26z" />
    <glyph glyph-name="v" unicode="v" horiz-adv-x="753" 
d="M749 582q-17 0 -27 -10t-18 -29l-197 -463q-14 -34 -14 -41q0 -5 4.5 -9t17.5 -6v-24h-284v23q15 2 19.5 8t4.5 12q0 2 -2 7t-4.5 11t-5 11l-3.5 7l-191 462q-11 25 -19.5 33t-25.5 8v26h276v-26q-19 0 -27 -7.5t-8 -16.5q0 -8 4 -19l133 -363h1l120 363q4 12 4 19
q0 11 -6.5 17.5t-23.5 6.5v26h272v-26z" />
    <glyph glyph-name="w" unicode="w" horiz-adv-x="1044" 
d="M1040 582q-18 0 -27 -8t-17 -31l-170 -467q-11 -29 -11 -37q0 -13 22 -13v-26h-271v26q17 0 21.5 6.5t4.5 13.5q0 5 -1 9.5t-5 15.5l-63 180h-2l-59 -177q-5 -15 -6 -21.5t-1 -11.5q0 -6 5 -10.5t16 -4.5v-26h-276v26q14 0 19 5t5 10q0 6 -2.5 14t-5.5 16l-169 471
q-8 22 -17 31t-26 9v26h280v-26q-35 0 -35 -25q0 -4 1.5 -9.5t2.5 -8.5l106 -326h3l136 351h62l139 -351h3l90 332q3 9 3 15q0 22 -30 22v26h275v-26z" />
    <glyph glyph-name="x" unicode="x" horiz-adv-x="749" 
d="M421 0v26q18 0 23.5 7.5t5.5 16.5q0 6 -3.5 11.5t-11.5 18.5l-73 113h-2l-72 -118q-3 -5 -9 -14.5t-6 -15.5t5 -12.5t22 -6.5v-26h-286v26q17 0 28 9t28 31l192 240l-188 238q-17 22 -29 30t-30 8v26h310v-26q-16 0 -23 -6t-7 -13q0 -5 1 -9t6 -10l85 -127h2l83 127
q9 14 9 19q0 8 -6 13.5t-23 5.5v26h281v-26q-18 0 -30 -8t-29 -30l-187 -238l187 -237q17 -22 30.5 -32.5t30.5 -10.5v-26h-314z" />
    <glyph glyph-name="y" unicode="y" horiz-adv-x="819" 
d="M812 582q-18 0 -30 -8.5t-27 -31.5l-248 -362v-111q0 -43 44 -43v-26h-283v26q24 0 33.5 11t9.5 32v111l-249 362q-16 23 -26 31.5t-29 8.5v26h317v-26q-18 0 -26 -7t-8 -16q0 -5 7 -17l123 -210h2l115 207q5 10 7.5 14.5t2.5 11.5q0 6 -7 11.5t-23 5.5v26h295v-26z" />
    <glyph glyph-name="z" unicode="z" horiz-adv-x="685" 
d="M624 -10q-14 6 -29.5 8t-28.5 2h-509l-39 67l335 392h-245q-22 0 -35.5 -11.5t-23.5 -33.5l-26 10l43 195q14 -5 27 -8t34 -3l493 -1l33 -63l-331 -397h262q19 0 34.5 12.5t23.5 32.5l25 -10z" />
    <glyph glyph-name="braceleft" unicode="{" horiz-adv-x="374" 
d="M362 -66q-79 0 -130.5 10t-81.5 31.5t-41.5 54t-11.5 77.5v171q0 34 -21.5 54.5t-56.5 27.5v42q35 6 56.5 24t21.5 58v170q0 46 12.5 79t43 54t81.5 31t128 10v-67q-48 -5 -66 -20.5t-18 -56.5v-186q0 -18 -7.5 -37t-22.5 -35t-38 -28t-53 -16v-2q30 -5 53 -16.5t38 -27
t22.5 -34.5t7.5 -37v-189q0 -21 4.5 -35t15 -22.5t26 -13t38.5 -6.5v-65z" />
    <glyph glyph-name="bar" unicode="|" horiz-adv-x="290" 
d="M57 -66v893h176v-893h-176z" />
    <glyph glyph-name="braceright" unicode="}" horiz-adv-x="374" 
d="M355 360q-35 -7 -56.5 -27.5t-21.5 -54.5v-171q0 -45 -11.5 -77.5t-41.5 -54t-81.5 -31.5t-130.5 -10v65q22 2 38 6.5t26.5 13t15 22.5t4.5 35v189q0 18 7.5 37t22.5 34.5t38 27t53 16.5v2q-30 4 -53 16t-38 28t-22.5 35t-7.5 37v186q0 41 -18 56.5t-66 20.5v67
q77 0 128 -10t81.5 -31t43 -54t12.5 -79v-170q0 -40 21.5 -58t56.5 -24v-42z" />
    <glyph glyph-name="asciitilde" unicode="~" horiz-adv-x="555" 
d="M523 504q0 -32 -8 -65t-25.5 -60t-44.5 -44.5t-66 -17.5q-47 0 -89.5 16.5t-84.5 33.5q-13 6 -23.5 8.5t-18.5 2.5q-17 0 -31.5 -14t-14.5 -45h-91q0 39 11 73t30.5 59t46 39t58.5 14q48 0 90.5 -16.5t84.5 -35.5q10 -5 19.5 -6t17.5 -1q17 0 32.5 15t15.5 44h91z" />
    <glyph glyph-name="uni00A0" unicode="&#xa0;" horiz-adv-x="175" 
 />
    <glyph glyph-name="exclamdown" unicode="&#xa1;" horiz-adv-x="349" 
d="M33 0v28q9 0 16.5 5.5t9.5 22.5l55 422h122l53 -422q2 -17 10 -22.5t17 -5.5v-28h-283zM278 673q0 -45 -31 -72t-74 -27t-74 27t-31 72q0 48 31 73t74 25t74 -25t31 -73z" />
    <glyph glyph-name="cent" unicode="&#xa2;" 
d="M698 97q-7 3 -13 6q-5 2 -12 4t-12 2q-8 0 -40.5 -4t-83.5 -6v-126h-110v128q-69 7 -126.5 29.5t-98.5 58.5t-63.5 83.5t-22.5 104.5q0 55 23 102.5t64.5 83.5t98.5 59t125 30v135h110v-133q48 -2 79 -6.5t45 -4.5q12 0 25 5q6 2 13 5l55 -188l-35 -15q-14 32 -60 50.5
t-128 18.5q-40 0 -77 -9.5t-65 -27.5t-44.5 -44.5t-16.5 -61.5q0 -66 54.5 -103.5t147.5 -37.5q82 0 126.5 16t62.5 48l35 -11z" />
    <glyph glyph-name="sterling" unicode="&#xa3;" 
d="M726 -6q-49 8 -124.5 11t-173.5 3q-97 0 -183 -4t-156 -9v142l25 2q20 1 41.5 11t39.5 26.5t29.5 40t11.5 53.5q0 13 -2 28t-5 27h-127v111h111q-9 32 -16 66t-7 70q0 42 19 78t56 62.5t91.5 41.5t125.5 15q60 0 105.5 -7.5t67.5 -7.5q31 0 49 5l41 -197l-31 -12
q-10 17 -21.5 31t-31 24.5t-49.5 16t-76 5.5q-62 0 -100 -20.5t-38 -64.5q0 -29 6.5 -56.5t12.5 -49.5h205v-111h-188q6 -21 8 -33.5t2 -26.5q0 -30 -19.5 -54t-59.5 -48v-2q23 4 75 8.5t114 4.5q39 0 75.5 -6.5t59.5 -6.5q24 0 42.5 16t29.5 40l33 -15z" />
    <glyph glyph-name="currency" unicode="&#xa4;" 
d="M795 -6q-6 2 -15.5 4.5t-20.5 2.5q-13 0 -69.5 -8.5t-145.5 -8.5q-84 0 -153.5 21t-123.5 59.5t-91 93.5t-55 123h-102l26 78h65q0 6 -0.5 11t-0.5 11q0 8 0.5 15t0.5 13h-91l26 77h79q18 64 55.5 117.5t91.5 91.5t123 59.5t150 21.5q39 0 73.5 -2.5t62.5 -6t48.5 -6
t31.5 -2.5t21 2.5t15 4.5l54 -224l-25 -10q-11 20 -27.5 35t-42.5 24.5t-62.5 14t-87.5 4.5q-77 0 -137 -30.5t-99 -93.5h343l-26 -77h-342q-2 -7 -2 -14v-15q0 -5 0.5 -10.5t0.5 -10.5h369l-26 -78h-325q35 -65 93.5 -98t149.5 -33q51 0 87.5 5t62.5 14.5t43.5 24.5
t29.5 35l24 -9z" />
    <glyph glyph-name="yen" unicode="&#xa5;" 
d="M871 733q-21 0 -39.5 -12t-35.5 -41l-163 -297h171v-89h-223l-37 -67l1 -11h259v-89h-259v-34q0 -29 12 -46.5t41 -17.5v-29h-318v29q28 0 39 17.5t11 46.5v34h-254v89h254v9l-36 69h-218v89h167l-163 294q-17 29 -35 42.5t-36 13.5v28h365v-28q-42 0 -42 -35
q0 -7 2 -13.5t6 -14.5l110 -257h3l103 251q5 11 8.5 20t3.5 20q0 14 -13 21.5t-30 7.5v28h346v-28z" />
    <glyph glyph-name="brokenbar" unicode="&#xa6;" horiz-adv-x="290" 
d="M57 -66v382h176v-382h-176zM57 440v388h176v-388h-176z" />
    <glyph glyph-name="section" unicode="&#xa7;" horiz-adv-x="575" 
d="M362 363q0 19 -19 24l-104 33q-9 -4 -17.5 -17t-8.5 -21q0 -19 24 -26l98 -32q9 4 18 17t9 22zM540 134q0 -34 -17 -62t-52 -48.5t-88.5 -32t-125.5 -11.5q-51 0 -81 6.5t-56 6.5q-8 0 -21 -2t-21 -4l-40 170l24 8q10 -16 21 -28t29.5 -20.5t47.5 -12.5t75 -4
q55 0 79.5 10t24.5 30q0 17 -14.5 27.5t-55.5 22.5l-121 35q-63 18 -87.5 52.5t-24.5 85.5q0 37 24 70.5t56 50.5q-13 7 -27 18t-26 26t-20 34.5t-8 43.5q0 33 18.5 61.5t54 50t86 34t114.5 12.5q56 0 88 -6.5t50 -6.5q14 0 28.5 2t22.5 4l40 -170l-25 -9q-8 16 -19.5 28.5
t-30.5 20.5t-47.5 12.5t-71.5 4.5q-59 0 -83 -10.5t-24 -30.5t19 -30.5t49 -18.5l119 -33q55 -15 86 -48.5t31 -89.5q0 -32 -21 -68t-62 -55q16 -9 31 -20t26.5 -26t18.5 -34.5t7 -45.5z" />
    <glyph glyph-name="dieresis" unicode="&#xa8;" horiz-adv-x="793" 
d="M346 727q0 -22 -18 -36.5t-44 -14.5t-43.5 14.5t-17.5 36.5t17.5 36t43.5 14q25 0 43.5 -14t18.5 -36zM571 727q0 -22 -17 -36.5t-43 -14.5t-44.5 14.5t-18.5 36.5t19 36t44 14q26 0 43 -14t17 -36z" />
    <glyph glyph-name="copyright" unicode="&#xa9;" horiz-adv-x="841" 
d="M596 163l-8 4q-4 2 -7.5 3t-8.5 1q-20 0 -50 -5.5t-80 -5.5q-58 0 -106 17t-82.5 47t-54 72t-19.5 93q0 49 20 91t55 72.5t83 47.5t104 17q45 0 81 -5t49 -5q9 0 17 3q4 1 8 3l37 -147l-26 -7q-13 25 -43.5 39.5t-86.5 14.5q-30 0 -57.5 -8t-49 -24t-34 -39t-12.5 -54
q0 -58 41.5 -90.5t110.5 -32.5q55 0 85.5 12t45.5 41l26 -6zM750 380q0 68 -26 128t-70.5 104.5t-104.5 70.5t-128 26t-128 -26t-105 -70.5t-71 -104.5t-26 -128t26 -128t71 -105t105 -71t128 -26t128 26t104.5 71t70.5 105t26 128zM813 380q0 -82 -30.5 -153.5
t-83.5 -124.5t-124.5 -83.5t-153.5 -30.5t-153.5 30.5t-125 83.5t-84 124.5t-30.5 153.5t30.5 153.5t84 124.5t125 83.5t153.5 30.5t153.5 -30.5t124.5 -83.5t83.5 -124.5t30.5 -153.5z" />
    <glyph glyph-name="ordfeminine" unicode="&#xaa;" horiz-adv-x="429" 
d="M237 555q-33 -5 -53 -14.5t-20 -24.5q0 -27 37 -27q17 0 26.5 7t9.5 18v41zM47 304v61h342v-61h-342zM262 428q-6 9 -7 22h-2q-15 -11 -37.5 -19.5t-54.5 -8.5q-111 0 -111 84q0 26 15 44t40.5 30t59.5 19.5t72 13.5v9q0 16 -13 26.5t-56 10.5q-29 0 -45.5 -10.5
t-22.5 -21.5l-23 7l21 94q5 -2 13 -3t17 -1q7 0 14.5 1t16.5 2.5t22 2.5t33 1q78 0 112.5 -30t34.5 -90v-136q0 -16 4.5 -28.5t8.5 -18.5h-112z" />
    <glyph glyph-name="guillemotleft" unicode="&#xab;" horiz-adv-x="518" 
d="M123 133l-95 186v9l95 181h153l-99 -187l99 -189h-153zM337 133l-95 186v9l95 181h153l-99 -187l99 -189h-153z" />
    <glyph glyph-name="logicalnot" unicode="&#xac;" horiz-adv-x="565" 
d="M442 169v183h-404v83h489v-266h-85z" />
    <glyph glyph-name="uni00AD" unicode="&#xad;" horiz-adv-x="382" 
d="M33 272v147h316v-147h-316z" />
    <glyph glyph-name="registered" unicode="&#xae;" horiz-adv-x="536" 
d="M323 561q0 16 -13.5 22t-43.5 6q-7 0 -14 -0.5t-12 -0.5v-54q5 -1 12.5 -1h14.5q28 0 42 6t14 22zM308 410q-12 14 -22 34t-16 37h-30v-37q0 -17 22 -17v-17h-117v17q19 0 19 17v164q0 20 -19 20v16q10 0 25.5 1t32 1.5t32 1t26.5 0.5q27 0 52 -3.5t44.5 -12.5t31 -25
t11.5 -41q0 -26 -15.5 -44t-41.5 -26q7 -15 16.5 -29t22.5 -31q7 -8 22 -8v-18h-96zM462 522q0 41 -15.5 77t-42 62.5t-62 42t-75.5 15.5t-74.5 -15t-60 -41.5t-40 -62.5t-14.5 -78q0 -44 13.5 -80t38.5 -62t58.5 -40.5t74.5 -14.5q42 0 78.5 16t63.5 43.5t42 63t15 74.5z
M508 522q0 -51 -18 -95.5t-50 -77.5t-77.5 -52t-99.5 -19q-53 0 -96.5 17.5t-74 49.5t-47.5 77t-17 100q0 54 19 99t52 76.5t76.5 49t91.5 17.5q49 0 93 -17.5t77 -49t52 -76.5t19 -99z" />
    <glyph glyph-name="macron" unicode="&#xaf;" horiz-adv-x="793" 
d="M268 691v63h257v-63h-257z" />
    <glyph glyph-name="degree" unicode="&#xb0;" horiz-adv-x="293" 
d="M201 659q0 23 -15.5 38t-38.5 15t-38.5 -15t-15.5 -38t15.5 -39t38.5 -16t38.5 16t15.5 39zM263 658q0 -23 -9 -43.5t-25 -36t-37 -24.5t-45 -9t-45.5 9t-37 24.5t-25 36t-9.5 43.5t9.5 44t25 36.5t37 24.5t45.5 9t45 -9t37 -24.5t25 -36.5t9 -44z" />
    <glyph glyph-name="plusminus" unicode="&#xb1;" horiz-adv-x="549" 
d="M41 1v100h466v-100h-466zM328 335v-188h-108v188h-179v101h179v187h108v-187h179v-101h-179z" />
    <glyph glyph-name="uni00B2" unicode="&#xb2;" horiz-adv-x="420" 
d="M363 372q-8 3 -18 4.5t-21 1.5h-295q0 39 11.5 70t32.5 56t49 45t61 35q48 22 62.5 35.5t14.5 27.5q0 17 -16 26.5t-58 9.5q-29 0 -49.5 -2.5t-35.5 -7.5t-25.5 -13t-18.5 -20l-18 6l27 113q15 -3 26 -3q9 0 18.5 1.5t22.5 4t31.5 4t45.5 1.5q91 0 130 -30.5t39 -84.5
q0 -77 -101 -121q-39 -17 -65 -30.5t-37 -34.5h154q14 0 24 6t18 22l18 -5z" />
    <glyph glyph-name="uni00B3" unicode="&#xb3;" horiz-adv-x="420" 
d="M396 481q0 -54 -50 -85t-147 -31q-31 0 -51.5 2t-34 5t-22 5t-15.5 2q-11 0 -22 -4l-29 123l19 7q17 -35 51.5 -45.5t86.5 -10.5q95 0 95 45q0 23 -19 32.5t-52 9.5h-29v74h33q20 0 33.5 7.5t13.5 24.5q0 20 -17 28t-56 8q-31 0 -51.5 -2t-34 -6t-22 -11t-15.5 -17l-18 7
l27 109q13 -3 26 -3q19 0 41 4t62 4q81 0 128.5 -25.5t47.5 -81.5q0 -30 -17 -49t-48 -29v-2q39 -8 62.5 -34t23.5 -61z" />
    <glyph glyph-name="acute" unicode="&#xb4;" horiz-adv-x="793" 
d="M380 678h-101l91 95h151z" />
    <glyph glyph-name="mu" unicode="&#xb5;" horiz-adv-x="729" 
d="M485 0v36q-23 -18 -59 -32t-67 -14q-34 0 -66 6t-53 17l12 -203l-187 -37v834h186v-338q0 -34 6 -60t20 -44t38 -27.5t59 -9.5q19 0 35.5 5t30.5 12.5t24.5 15.5t16.5 15v431h183v-607h-179z" />
    <glyph glyph-name="mu" unicode="&#x3bc;" horiz-adv-x="729" 
d="M485 0v36q-23 -18 -59 -32t-67 -14q-34 0 -66 6t-53 17l12 -203l-187 -37v834h186v-338q0 -34 6 -60t20 -44t38 -27.5t59 -9.5q19 0 35.5 5t30.5 12.5t24.5 15.5t16.5 15v431h183v-607h-179z" />
    <glyph glyph-name="paragraph" unicode="&#xb6;" horiz-adv-x="832" 
d="M588 667h-84v-573l84 1v572zM438 0q-206 0 -311 98.5t-105 284.5q0 183 105 280.5t311 97.5h362v-93h-94v-574h94v-94h-362z" />
    <glyph glyph-name="periodcentered" unicode="&#xb7;" horiz-adv-x="278" 
d="M244 370q0 -48 -30.5 -73t-73.5 -25t-74.5 25t-31.5 73q0 22 8.5 40.5t23 31t34 19.5t40.5 7q43 0 73.5 -26.5t30.5 -71.5z" />
    <glyph glyph-name="cedilla" unicode="&#xb8;" horiz-adv-x="793" 
d="M558 -89q0 -30 -38 -54.5t-121 -24.5q-30 0 -49.5 2.5t-44.5 7.5l16 39q15 -4 27.5 -5.5t29.5 -1.5q36 0 49.5 7.5t13.5 18.5t-10.5 18.5t-33.5 7.5q-17 0 -29 -1t-26 -4l-21 21l30 65h58l-19 -40v-2q7 1 26.5 2t30.5 1q111 0 111 -57z" />
    <glyph glyph-name="uni00B9" unicode="&#xb9;" horiz-adv-x="420" 
d="M144 381v18q16 0 21.5 7.5t5.5 21.5v212q-14 -5 -36.5 -8.5t-41.5 -4.5v71q9 1 25 4.5t32.5 11t30.5 19t20 28.5h90q-7 -20 -7 -33v-300q0 -14 6 -21.5t21 -7.5v-18h-167z" />
    <glyph glyph-name="ordmasculine" unicode="&#xba;" horiz-adv-x="429" 
d="M275 582q0 44 -18.5 60.5t-42.5 16.5t-43 -16.5t-19 -60.5q0 -47 18.5 -64.5t43.5 -17.5q11 0 22 4t19.5 13.5t14 25t5.5 39.5zM43 304v61h341v-61h-341zM394 583q0 -39 -14 -69t-38 -50.5t-57 -30.5t-71 -10q-39 0 -72 10t-57 30t-37.5 49.5t-13.5 69.5q0 37 14 65.5
t38 48t57 29.5t71 10q33 0 65.5 -10t58 -29.5t41 -48t15.5 -64.5z" />
    <glyph glyph-name="guillemotright" unicode="&#xbb;" horiz-adv-x="518" 
d="M181 133h-153l99 189l-99 187h153l95 -181v-9zM395 133h-153l99 189l-99 187h153l95 -181v-9z" />
    <glyph glyph-name="onequarter" unicode="&#xbc;" horiz-adv-x="940" 
d="M681 298l-95 -144h95v144zM141 381v18q16 0 21.5 7.5t5.5 21.5v212q-14 -5 -36.5 -8.5t-41.5 -4.5v71q9 1 25 4.5t32.5 11t30.5 19t20 28.5h90q-7 -20 -7 -33v-300q0 -14 6 -21.5t21 -7.5v-18h-167zM246 0h-151l558 761h153zM848 59q-10 4 -20 5t-18 1h-17v-18
q0 -29 27 -29v-19h-166v19q16 0 21.5 7t5.5 22v18h-225v66l163 222q4 5 8 12t6 15h175v-20q-15 0 -15 -14v-192h22q17 0 25.5 7t17.5 24l17 -6z" />
    <glyph glyph-name="onehalf" unicode="&#xbd;" horiz-adv-x="940" 
d="M102 381v18q16 0 21.5 7.5t5.5 21.5v212q-14 -5 -36.5 -8.5t-41.5 -4.5v71q9 1 25 4.5t32.5 11t30.5 19t20 28.5h90q-7 -20 -7 -33v-300q0 -14 6 -21.5t21 -7.5v-18h-167zM207 0h-151l558 761h153zM832 -6q-8 3 -18 4.5t-21 1.5h-295q0 39 11.5 70t32.5 56t49 45t61 35
q48 22 62.5 35.5t14.5 27.5q0 17 -16 26.5t-58 9.5q-29 0 -49.5 -2.5t-35.5 -7.5t-25.5 -13t-18.5 -20l-18 6l27 113q15 -3 26 -3q9 0 18.5 1.5t22.5 4t31.5 4t45.5 1.5q91 0 130 -30.5t39 -84.5q0 -77 -101 -121q-39 -17 -65 -30.5t-37 -34.5h154q14 0 24 6t18 22l18 -5z
" />
    <glyph glyph-name="threequarters" unicode="&#xbe;" horiz-adv-x="940" 
d="M720 298l-95 -144h95v144zM404 481q0 -54 -50 -85t-147 -31q-31 0 -51.5 2t-34 5t-22 5t-15.5 2q-11 0 -22 -4l-29 123l19 7q17 -35 51.5 -45.5t86.5 -10.5q95 0 95 45q0 23 -19 32.5t-52 9.5h-29v74h33q20 0 33.5 7.5t13.5 24.5q0 20 -17 28t-56 8q-31 0 -51.5 -2
t-34 -6t-22 -11t-15.5 -17l-18 7l27 109q13 -3 26 -3q19 0 41 4t62 4q81 0 128.5 -25.5t47.5 -81.5q0 -30 -17 -49t-48 -29v-2q39 -8 62.5 -34t23.5 -61zM295 0h-151l558 761h153zM887 59q-10 4 -20 5t-18 1h-17v-18q0 -29 27 -29v-19h-166v19q16 0 21.5 7t5.5 22v18h-225
v66l163 222q4 5 8 12t6 15h175v-20q-15 0 -15 -14v-192h22q17 0 25.5 7t17.5 24l17 -6z" />
    <glyph glyph-name="questiondown" unicode="&#xbf;" horiz-adv-x="592" 
d="M510 -6q-18 6 -48 6q-20 0 -55.5 -6t-106.5 -6q-128 0 -199 51.5t-71 144.5q0 34 12.5 59.5t32 45t44 35t48.5 29.5q25 15 46 28t36.5 26t24.5 26.5t9 28.5q0 13 -10 17.5t-21 4.5v25h177l4.5 -18t2.5 -21q0 -40 -17.5 -73.5t-59.5 -62.5q-32 -23 -52.5 -38.5
t-32.5 -27.5t-16.5 -23.5t-4.5 -24.5q0 -14 5 -26.5t18 -22.5t34.5 -15.5t53.5 -5.5q35 0 61.5 6t46 16.5t33 23.5t22.5 27l35 -13zM450 670q0 -23 -8.5 -41t-23 -31t-34 -20t-40.5 -7q-43 0 -73.5 26.5t-30.5 72.5q0 48 30.5 73t73.5 25t74.5 -25t31.5 -73z" />
    <glyph glyph-name="Agrave" unicode="&#xc0;" horiz-adv-x="947" 
d="M459 540h-2l-100 -286q24 -8 47 -12.5t58 -4.5q62 0 106 18zM599 0v28q46 0 46 28q0 8 -2 15t-6 16l-5 11q-37 -9 -77.5 -15.5t-79.5 -6.5q-42 0 -85 7t-78 15l-4 -14q-6 -20 -6 -32q0 -14 10 -19t30 -5v-28h-330v28q13 0 22.5 3t16.5 9.5t12.5 17t12.5 26.5l243 578
q6 15 9.5 25t3.5 16q0 30 -29 30v28h349v-28q-32 0 -32 -30q0 -9 4 -21.5t8 -20.5l241 -578q14 -33 26.5 -44t35.5 -11v-28h-336zM487 803l-141 94h151l92 -94h-102z" />
    <glyph glyph-name="Aacute" unicode="&#xc1;" horiz-adv-x="947" 
d="M459 540h-2l-100 -286q24 -8 47 -12.5t58 -4.5q62 0 106 18zM599 0v28q46 0 46 28q0 8 -2 15t-6 16l-5 11q-37 -9 -77.5 -15.5t-79.5 -6.5q-42 0 -85 7t-78 15l-4 -14q-6 -20 -6 -32q0 -14 10 -19t30 -5v-28h-330v28q13 0 22.5 3t16.5 9.5t12.5 17t12.5 26.5l243 578
q6 15 9.5 25t3.5 16q0 30 -29 30v28h349v-28q-32 0 -32 -30q0 -9 4 -21.5t8 -20.5l241 -578q14 -33 26.5 -44t35.5 -11v-28h-336zM482 803h-101l91 95h151z" />
    <glyph glyph-name="Acircumflex" unicode="&#xc2;" horiz-adv-x="947" 
d="M459 540h-2l-100 -286q24 -8 47 -12.5t58 -4.5q62 0 106 18zM599 0v28q46 0 46 28q0 8 -2 15t-6 16l-5 11q-37 -9 -77.5 -15.5t-79.5 -6.5q-42 0 -85 7t-78 15l-4 -14q-6 -20 -6 -32q0 -14 10 -19t30 -5v-28h-330v28q13 0 22.5 3t16.5 9.5t12.5 17t12.5 26.5l243 578
q6 15 9.5 25t3.5 16q0 30 -29 30v28h349v-28q-32 0 -32 -30q0 -9 4 -21.5t8 -20.5l241 -578q14 -33 26.5 -44t35.5 -11v-28h-336zM531 803l-57 49l-56 -49h-142l125 94h146l128 -94h-144z" />
    <glyph glyph-name="Atilde" unicode="&#xc3;" horiz-adv-x="947" 
d="M459 540h-2l-100 -286q24 -8 47 -12.5t58 -4.5q62 0 106 18zM599 0v28q46 0 46 28q0 8 -2 15t-6 16l-5 11q-37 -9 -77.5 -15.5t-79.5 -6.5q-42 0 -85 7t-78 15l-4 -14q-6 -20 -6 -32q0 -14 10 -19t30 -5v-28h-330v28q13 0 22.5 3t16.5 9.5t12.5 17t12.5 26.5l243 578
q6 15 9.5 25t3.5 16q0 30 -29 30v28h349v-28q-32 0 -32 -30q0 -9 4 -21.5t8 -20.5l241 -578q14 -33 26.5 -44t35.5 -11v-28h-336zM644 902q-3 -20 -10.5 -37.5t-20 -31.5t-31 -22t-43.5 -8q-21 0 -39.5 4.5t-35.5 9.5q-13 4 -28 9t-29 5q-17 0 -25 -7.5t-13 -21.5h-63
q3 42 31 71t76 29q22 0 40 -4.5t33 -9.5q11 -4 24.5 -9t26.5 -5q34 0 40 28h67z" />
    <glyph glyph-name="Adieresis" unicode="&#xc4;" horiz-adv-x="947" 
d="M459 540h-2l-100 -286q24 -8 47 -12.5t58 -4.5q62 0 106 18zM599 0v28q46 0 46 28q0 8 -2 15t-6 16l-5 11q-37 -9 -77.5 -15.5t-79.5 -6.5q-42 0 -85 7t-78 15l-4 -14q-6 -20 -6 -32q0 -14 10 -19t30 -5v-28h-330v28q13 0 22.5 3t16.5 9.5t12.5 17t12.5 26.5l243 578
q6 15 9.5 25t3.5 16q0 30 -29 30v28h349v-28q-32 0 -32 -30q0 -9 4 -21.5t8 -20.5l241 -578q14 -33 26.5 -44t35.5 -11v-28h-336zM423 854q0 -22 -18 -36.5t-44 -14.5t-43.5 14.5t-17.5 36.5t17.5 36t43.5 14q25 0 43.5 -14t18.5 -36zM648 854q0 -22 -17 -36.5t-43 -14.5
t-44.5 14.5t-18.5 36.5t19 36t44 14q26 0 43 -14t17 -36z" />
    <glyph glyph-name="Aring" unicode="&#xc5;" horiz-adv-x="947" 
d="M459 540h-2l-100 -286q24 -8 47 -12.5t58 -4.5q62 0 106 18zM504 841q0 11 -11 20t-26 9t-25.5 -9t-10.5 -20t10.5 -19.5t25.5 -8.5t26 8.5t11 19.5zM599 0v28q46 0 46 28q0 8 -2 15t-6 16l-5 11q-37 -9 -77.5 -15.5t-79.5 -6.5q-42 0 -85 7t-78 15l-4 -14q-6 -20 -6 -32
q0 -14 10 -19t30 -5v-28h-330v28q13 0 22.5 3t16.5 9.5t12.5 17t12.5 26.5l243 578q6 15 9.5 25t3.5 16q0 30 -29 30v28h349v-28q-32 0 -32 -30q0 -9 4 -21.5t8 -20.5l241 -578q14 -33 26.5 -44t35.5 -11v-28h-336zM550 842q0 -29 -24 -47.5t-58 -18.5t-59 18.5t-25 47.5
t25 47.5t59 18.5t58 -18.5t24 -47.5z" />
    <glyph glyph-name="AE" unicode="&#xc6;" horiz-adv-x="1382" 
d="M629 610h-3l-197 -342q23 -9 43 -13.5t52 -4.5q35 0 59.5 5t45.5 13v342zM1303 -11q-13 5 -30 8t-32 3h-666v26q26 0 40 17t14 49v20q-30 -11 -64 -16.5t-82 -5.5q-45 0 -83 6.5t-66 14.5l-17 -28q-4 -6 -7 -13t-3 -15q0 -14 9.5 -21.5t26.5 -7.5v-26h-331v26q19 0 31 7
t29 35l366 592q14 24 14 39t-7 24.5t-23 9.5v28h814q21 0 37.5 2.5t27.5 6.5l48 -229l-27 -10q-28 58 -90 58h-375v-119h280q28 0 43 10.5t15 35.5h28v-262h-28q0 22 -13 34t-43 12h-282v-129h376q35 0 56.5 16t34.5 45l28 -12z" />
    <glyph glyph-name="Ccedilla" unicode="&#xc7;" horiz-adv-x="835" 
d="M741 4q-6 2 -15.5 4.5t-20.5 2.5q-6 0 -23.5 -2.5t-43.5 -5.5t-60 -5.5t-74 -3.5l-13 -26v-2q7 1 26.5 2t30.5 1q111 0 111 -57q0 -30 -38 -54.5t-121 -24.5q-30 0 -49.5 2.5t-44.5 7.5l16 39q15 -4 27.5 -5.5t29.5 -1.5q36 0 49.5 7.5t13.5 18.5t-10.5 18.5t-33.5 7.5
q-17 0 -29 -1t-26 -4l-21 21l24 52q-92 5 -167.5 35t-129.5 80.5t-84 120.5t-30 154q0 85 33.5 157t93 124t141 81t177.5 29q48 0 85 -2.5t64.5 -6t46.5 -6t30 -2.5t21 2.5t15 4.5l58 -242l-25 -10q-24 52 -78.5 74t-155.5 22q-53 0 -102 -14t-87 -42t-61 -71t-23 -100
q0 -54 20 -96t56 -70t86 -42.5t111 -14.5q51 0 89 4.5t66 16t47.5 29.5t31.5 45l25 -9z" />
    <glyph glyph-name="Egrave" unicode="&#xc8;" horiz-adv-x="854" 
d="M775 -11q-13 5 -30 8t-32 3h-673v28q32 0 46 14.5t14 51.5v573q0 35 -15.5 50.5t-44.5 15.5v28h667q21 0 37.5 2.5t27.5 6.5l49 -229l-27 -10q-14 29 -35.5 43.5t-53.5 14.5h-378v-119h276q35 0 49.5 11t14.5 34h28v-261h-28q0 24 -14 35t-50 11h-276v-129h376
q35 0 57 15.5t36 45.5l28 -12zM455 803l-141 94h151l92 -94h-102z" />
    <glyph glyph-name="Eacute" unicode="&#xc9;" horiz-adv-x="854" 
d="M775 -11q-13 5 -30 8t-32 3h-673v28q32 0 46 14.5t14 51.5v573q0 35 -15.5 50.5t-44.5 15.5v28h667q21 0 37.5 2.5t27.5 6.5l49 -229l-27 -10q-14 29 -35.5 43.5t-53.5 14.5h-378v-119h276q35 0 49.5 11t14.5 34h28v-261h-28q0 24 -14 35t-50 11h-276v-129h376
q35 0 57 15.5t36 45.5l28 -12zM446 803h-101l91 95h151z" />
    <glyph glyph-name="Ecircumflex" unicode="&#xca;" horiz-adv-x="854" 
d="M775 -11q-13 5 -30 8t-32 3h-673v28q32 0 46 14.5t14 51.5v573q0 35 -15.5 50.5t-44.5 15.5v28h667q21 0 37.5 2.5t27.5 6.5l49 -229l-27 -10q-14 29 -35.5 43.5t-53.5 14.5h-378v-119h276q35 0 49.5 11t14.5 34h28v-261h-28q0 24 -14 35t-50 11h-276v-129h376
q35 0 57 15.5t36 45.5l28 -12zM498 802l-57 49l-56 -49h-142l125 94h146l128 -94h-144z" />
    <glyph glyph-name="Edieresis" unicode="&#xcb;" horiz-adv-x="854" 
d="M775 -11q-13 5 -30 8t-32 3h-673v28q32 0 46 14.5t14 51.5v573q0 35 -15.5 50.5t-44.5 15.5v28h667q21 0 37.5 2.5t27.5 6.5l49 -229l-27 -10q-14 29 -35.5 43.5t-53.5 14.5h-378v-119h276q35 0 49.5 11t14.5 34h28v-261h-28q0 24 -14 35t-50 11h-276v-129h376
q35 0 57 15.5t36 45.5l28 -12zM384 854q0 -22 -18 -36.5t-44 -14.5t-43.5 14.5t-17.5 36.5t17.5 36t43.5 14q25 0 43.5 -14t18.5 -36zM609 854q0 -22 -17 -36.5t-43 -14.5t-44.5 14.5t-18.5 36.5t19 36t44 14q26 0 43 -14t17 -36z" />
    <glyph glyph-name="Igrave" unicode="&#xcc;" horiz-adv-x="427" 
d="M40 0v28q60 0 60 64v575q0 66 -60 66v28h347v-28q-60 0 -60 -66v-575q0 -32 14 -48t46 -16v-28h-347zM237 803l-141 94h151l92 -94h-102z" />
    <glyph glyph-name="Iacute" unicode="&#xcd;" horiz-adv-x="427" 
d="M40 0v28q60 0 60 64v575q0 66 -60 66v28h347v-28q-60 0 -60 -66v-575q0 -32 14 -48t46 -16v-28h-347zM221 803h-101l91 95h151z" />
    <glyph glyph-name="Icircumflex" unicode="&#xce;" horiz-adv-x="427" 
d="M40 0v28q60 0 60 64v575q0 66 -60 66v28h347v-28q-60 0 -60 -66v-575q0 -32 14 -48t46 -16v-28h-347zM271 803l-57 49l-56 -49h-142l125 94h146l128 -94h-144z" />
    <glyph glyph-name="Idieresis" unicode="&#xcf;" horiz-adv-x="427" 
d="M40 0v28q60 0 60 64v575q0 66 -60 66v28h347v-28q-60 0 -60 -66v-575q0 -32 14 -48t46 -16v-28h-347zM161 854q0 -22 -18 -36.5t-44 -14.5t-43.5 14.5t-17.5 36.5t17.5 36t43.5 14q25 0 43.5 -14t18.5 -36zM386 854q0 -22 -17 -36.5t-43 -14.5t-44.5 14.5t-18.5 36.5
t19 36t44 14q26 0 43 -14t17 -36z" />
    <glyph glyph-name="Eth" unicode="&#xd0;" horiz-adv-x="988" 
d="M720 383q0 60 -20 102t-55 68.5t-83 38.5t-103 12q-42 0 -68 -2t-52 -5v-154h209v-124h-209v-157q24 -3 58 -5t73 -2q55 0 101 14t79 42.5t51.5 71.5t18.5 100zM953 381q0 -86 -27 -158.5t-84.5 -125.5t-149 -83t-220.5 -30q-63 0 -124.5 1.5t-116.5 4t-101 5.5t-78 5v28
q30 0 45 14t15 49v228h-105v124h105v217q0 41 -14.5 57t-45.5 16v28q31 3 75.5 6t97.5 5.5t113.5 4t123.5 1.5q113 0 204 -28.5t154.5 -81t98 -125.5t34.5 -162z" />
    <glyph glyph-name="Ntilde" unicode="&#xd1;" horiz-adv-x="968" 
d="M667 0q0 2 0.5 4t0.5 4q0 13 -5.5 28t-18.5 29l-344 366h-2v-337q0 -35 15 -50.5t45 -15.5v-28h-317v28q29 0 44 15.5t15 50.5v573q0 35 -14 50.5t-46 15.5v28h284q1 -11 6.5 -26t17.5 -28l319 -343l2 -1v304q0 38 -14 52t-46 14v28h319v-28q-30 0 -45 -14.5t-15 -51.5
v-497v-76q0 -35 14 -50.5t46 -15.5v-28h-261zM644 905q-3 -20 -10.5 -37.5t-20 -31.5t-31 -22t-43.5 -8q-21 0 -39.5 4.5t-35.5 9.5q-13 4 -28 9t-29 5q-17 0 -25 -7.5t-13 -21.5h-63q3 42 31 71t76 29q22 0 40 -4.5t33 -9.5q11 -4 24.5 -9t26.5 -5q34 0 40 28h67z" />
    <glyph glyph-name="Ograve" unicode="&#xd2;" horiz-adv-x="995" 
d="M727 374q0 60 -21.5 103.5t-55 71.5t-74.5 41.5t-79 13.5q-42 0 -83 -14.5t-73.5 -43.5t-52.5 -71.5t-20 -98.5q0 -54 21.5 -95.5t54.5 -69.5t73.5 -42.5t78.5 -14.5t79 13t74.5 40t55.5 68.5t22 98.5zM960 376q0 -98 -40 -173t-105.5 -125t-148.5 -75.5t-170 -25.5
q-86 0 -169 25.5t-148 76t-104.5 125t-39.5 172.5q0 94 40 170t105 129.5t148.5 82t169.5 28.5t169 -27.5t148 -80t105 -129t40 -173.5zM500 803l-141 94h151l92 -94h-102z" />
    <glyph glyph-name="Oacute" unicode="&#xd3;" horiz-adv-x="995" 
d="M727 374q0 60 -21.5 103.5t-55 71.5t-74.5 41.5t-79 13.5q-42 0 -83 -14.5t-73.5 -43.5t-52.5 -71.5t-20 -98.5q0 -54 21.5 -95.5t54.5 -69.5t73.5 -42.5t78.5 -14.5t79 13t74.5 40t55.5 68.5t22 98.5zM960 376q0 -98 -40 -173t-105.5 -125t-148.5 -75.5t-170 -25.5
q-86 0 -169 25.5t-148 76t-104.5 125t-39.5 172.5q0 94 40 170t105 129.5t148.5 82t169.5 28.5t169 -27.5t148 -80t105 -129t40 -173.5zM497 803h-101l91 95h151z" />
    <glyph glyph-name="Ocircumflex" unicode="&#xd4;" horiz-adv-x="995" 
d="M727 374q0 60 -21.5 103.5t-55 71.5t-74.5 41.5t-79 13.5q-42 0 -83 -14.5t-73.5 -43.5t-52.5 -71.5t-20 -98.5q0 -54 21.5 -95.5t54.5 -69.5t73.5 -42.5t78.5 -14.5t79 13t74.5 40t55.5 68.5t22 98.5zM960 376q0 -98 -40 -173t-105.5 -125t-148.5 -75.5t-170 -25.5
q-86 0 -169 25.5t-148 76t-104.5 125t-39.5 172.5q0 94 40 170t105 129.5t148.5 82t169.5 28.5t169 -27.5t148 -80t105 -129t40 -173.5zM551 803l-57 49l-56 -49h-142l125 94h146l128 -94h-144z" />
    <glyph glyph-name="Otilde" unicode="&#xd5;" horiz-adv-x="995" 
d="M727 374q0 60 -21.5 103.5t-55 71.5t-74.5 41.5t-79 13.5q-42 0 -83 -14.5t-73.5 -43.5t-52.5 -71.5t-20 -98.5q0 -54 21.5 -95.5t54.5 -69.5t73.5 -42.5t78.5 -14.5t79 13t74.5 40t55.5 68.5t22 98.5zM960 376q0 -98 -40 -173t-105.5 -125t-148.5 -75.5t-170 -25.5
q-86 0 -169 25.5t-148 76t-104.5 125t-39.5 172.5q0 94 40 170t105 129.5t148.5 82t169.5 28.5t169 -27.5t148 -80t105 -129t40 -173.5zM671 902q-3 -20 -10.5 -37.5t-20 -31.5t-31 -22t-43.5 -8q-21 0 -39.5 4.5t-35.5 9.5q-13 4 -28 9t-29 5q-17 0 -25 -7.5t-13 -21.5h-63
q3 42 31 71t76 29q22 0 40 -4.5t33 -9.5q11 -4 24.5 -9t26.5 -5q34 0 40 28h67z" />
    <glyph glyph-name="Odieresis" unicode="&#xd6;" horiz-adv-x="995" 
d="M727 374q0 60 -21.5 103.5t-55 71.5t-74.5 41.5t-79 13.5q-42 0 -83 -14.5t-73.5 -43.5t-52.5 -71.5t-20 -98.5q0 -54 21.5 -95.5t54.5 -69.5t73.5 -42.5t78.5 -14.5t79 13t74.5 40t55.5 68.5t22 98.5zM960 376q0 -98 -40 -173t-105.5 -125t-148.5 -75.5t-170 -25.5
q-86 0 -169 25.5t-148 76t-104.5 125t-39.5 172.5q0 94 40 170t105 129.5t148.5 82t169.5 28.5t169 -27.5t148 -80t105 -129t40 -173.5zM445 854q0 -22 -18 -36.5t-44 -14.5t-43.5 14.5t-17.5 36.5t17.5 36t43.5 14q25 0 43.5 -14t18.5 -36zM670 854q0 -22 -17 -36.5
t-43 -14.5t-44.5 14.5t-18.5 36.5t19 36t44 14q26 0 43 -14t17 -36z" />
    <glyph glyph-name="multiply" unicode="&#xd7;" horiz-adv-x="618" 
d="M465 94l-157 156l-155 -154l-96 94l156 156l-156 156l96 96l155 -156l157 157l95 -94l-155 -159l155 -156z" />
    <glyph glyph-name="Oslash" unicode="&#xd8;" horiz-adv-x="995" 
d="M599 575q-25 11 -49.5 16t-52.5 5q-42 0 -83 -13.5t-73.5 -41t-52.5 -69t-20 -96.5q0 -49 15 -80.5t36 -57.5zM727 374q0 53 -15.5 88.5t-36.5 59.5l-279 -340q28 -10 50 -15.5t50 -5.5q38 0 79 12t74.5 37.5t55.5 66t22 97.5zM960 376q0 -98 -40 -171.5t-105.5 -122.5
t-148.5 -73t-170 -24q-63 0 -118 11.5t-108 34.5l-91 -113l-72 61l82 97q-33 25 -61.5 55t-49 67t-32 81t-11.5 97q0 94 40 168.5t105 126.5t148.5 79t169.5 27q63 0 118.5 -12.5t107.5 -36.5l82 100l75 -55l-76 -91q31 -23 59.5 -54t49.5 -69t33.5 -84t12.5 -99z" />
    <glyph glyph-name="Ugrave" unicode="&#xd9;" horiz-adv-x="974" 
d="M937 734q-30 0 -45 -15.5t-15 -50.5v-94v-329q0 -34 2.5 -51t8.5 -28q-33 -37 -73 -71t-88.5 -59.5t-107 -40.5t-127.5 -15q-70 0 -129 14.5t-109 39.5t-92 59t-77 73q7 12 9.5 29t2.5 50v334v88q0 35 -17.5 50.5t-42.5 15.5v28h347v-28q-32 0 -46 -15.5t-14 -50.5v-79
v-299q0 -28 14 -51t37.5 -39t54 -24.5t62.5 -8.5q33 0 66.5 7.5t59.5 23t42.5 39t16.5 55.5v325v52q0 35 -15 50.5t-45 15.5v27h320v-27zM487 803l-141 94h151l92 -94h-102z" />
    <glyph glyph-name="Uacute" unicode="&#xda;" horiz-adv-x="974" 
d="M937 734q-30 0 -45 -15.5t-15 -50.5v-94v-329q0 -34 2.5 -51t8.5 -28q-33 -37 -73 -71t-88.5 -59.5t-107 -40.5t-127.5 -15q-70 0 -129 14.5t-109 39.5t-92 59t-77 73q7 12 9.5 29t2.5 50v334v88q0 35 -17.5 50.5t-42.5 15.5v28h347v-28q-32 0 -46 -15.5t-14 -50.5v-79
v-299q0 -28 14 -51t37.5 -39t54 -24.5t62.5 -8.5q33 0 66.5 7.5t59.5 23t42.5 39t16.5 55.5v325v52q0 35 -15 50.5t-45 15.5v27h320v-27zM497 803h-101l91 95h151z" />
    <glyph glyph-name="Ucircumflex" unicode="&#xdb;" horiz-adv-x="974" 
d="M937 734q-30 0 -45 -15.5t-15 -50.5v-94v-329q0 -34 2.5 -51t8.5 -28q-33 -37 -73 -71t-88.5 -59.5t-107 -40.5t-127.5 -15q-70 0 -129 14.5t-109 39.5t-92 59t-77 73q7 12 9.5 29t2.5 50v334v88q0 35 -17.5 50.5t-42.5 15.5v28h347v-28q-32 0 -46 -15.5t-14 -50.5v-79
v-299q0 -28 14 -51t37.5 -39t54 -24.5t62.5 -8.5q33 0 66.5 7.5t59.5 23t42.5 39t16.5 55.5v325v52q0 35 -15 50.5t-45 15.5v27h320v-27zM551 802l-57 49l-56 -49h-142l125 94h146l128 -94h-144z" />
    <glyph glyph-name="Udieresis" unicode="&#xdc;" horiz-adv-x="974" 
d="M937 734q-30 0 -45 -15.5t-15 -50.5v-94v-329q0 -34 2.5 -51t8.5 -28q-33 -37 -73 -71t-88.5 -59.5t-107 -40.5t-127.5 -15q-70 0 -129 14.5t-109 39.5t-92 59t-77 73q7 12 9.5 29t2.5 50v334v88q0 35 -17.5 50.5t-42.5 15.5v28h347v-28q-32 0 -46 -15.5t-14 -50.5v-79
v-299q0 -28 14 -51t37.5 -39t54 -24.5t62.5 -8.5q33 0 66.5 7.5t59.5 23t42.5 39t16.5 55.5v325v52q0 35 -15 50.5t-45 15.5v27h320v-27zM431 854q0 -22 -18 -36.5t-44 -14.5t-43.5 14.5t-17.5 36.5t17.5 36t43.5 14q25 0 43.5 -14t18.5 -36zM656 854q0 -22 -17 -36.5
t-43 -14.5t-44.5 14.5t-18.5 36.5t19 36t44 14q26 0 43 -14t17 -36z" />
    <glyph glyph-name="Yacute" unicode="&#xdd;" horiz-adv-x="1013" 
d="M1001 733q-24 0 -42 -12t-37 -41l-304 -457v-131q0 -35 12.5 -49.5t47.5 -14.5v-28h-346v28q35 0 47.5 14.5t12.5 49.5v133l-304 452q-21 32 -37 44t-39 12v28h387v-28q-44 0 -44 -35q0 -14 10 -30l154 -244h2l145 241q8 13 11 20.5t3 18.5q0 29 -45 29v28h366v-28z
M534 803h-101l91 95h151z" />
    <glyph glyph-name="Thorn" unicode="&#xde;" horiz-adv-x="879" 
d="M618 370q0 35 -18.5 55.5t-47 31t-63.5 13t-67 2.5q-19 0 -44 -0.5t-51 -2.5v-201q11 -1 25 -2t27.5 -1.5t25.5 -1t20 -0.5q34 0 68.5 4t62.5 16t45 33t17 54zM845 376q0 -66 -28 -116t-80.5 -84.5t-128 -52t-170.5 -17.5h-23.5t-28.5 1t-30.5 1.5t-28.5 2.5v-14
q0 -38 14 -53.5t46 -15.5v-28h-347v28q31 0 45.5 15t14.5 52v572q0 35 -15 50.5t-45 15.5v28h347v-28q-29 0 -44 -15.5t-15 -50.5v-19q26 1 42.5 1h35.5q108 0 190 -15t137.5 -48t83.5 -85t28 -125z" />
    <glyph glyph-name="germandbls" unicode="&#xdf;" horiz-adv-x="683" 
d="M645 381q-22 -36 -48 -66.5t-58 -53t-70.5 -35t-84.5 -12.5t-89.5 16.5t-81 37t-67.5 37t-49 16.5q-17 0 -28 -3.5t-19 -8.5l-12 19q44 50 92.5 78.5t114.5 28.5q30 0 67 -10.5t77 -23.5t81 -23.5t79 -10.5q29 0 47.5 8t32.5 22z" />
    <glyph glyph-name="agrave" unicode="&#xe0;" horiz-adv-x="762" 
d="M370 408h-1q-14 -38 -27 -74q-11 -31 -23.5 -65t-21.5 -58q14 -5 31 -8.5t43 -3.5q23 0 42 3.5t33 8.5zM480 0v26q20 0 26.5 6.5t6.5 14.5q0 4 -5 16l-5 12q-26 -7 -57.5 -11.5t-63.5 -4.5q-33 0 -67 5t-59 11l-4 -14q-2 -6 -3 -10.5t-1 -7.5q0 -17 33 -17v-26h-277v26
q17 0 26 7t20 32l204 472q8 19 8 24q0 9 -5.5 15t-16.5 6v26h286v-26q-15 0 -19.5 -6t-4.5 -13q0 -3 1.5 -10t6.5 -18l203 -471q11 -25 19.5 -31.5t25.5 -6.5v-26h-278zM371 678l-141 94h151l92 -94h-102z" />
    <glyph glyph-name="aacute" unicode="&#xe1;" horiz-adv-x="762" 
d="M370 408h-1q-14 -38 -27 -74q-11 -31 -23.5 -65t-21.5 -58q14 -5 31 -8.5t43 -3.5q23 0 42 3.5t33 8.5zM480 0v26q20 0 26.5 6.5t6.5 14.5q0 4 -5 16l-5 12q-26 -7 -57.5 -11.5t-63.5 -4.5q-33 0 -67 5t-59 11l-4 -14q-2 -6 -3 -10.5t-1 -7.5q0 -17 33 -17v-26h-277v26
q17 0 26 7t20 32l204 472q8 19 8 24q0 9 -5.5 15t-16.5 6v26h286v-26q-15 0 -19.5 -6t-4.5 -13q0 -3 1.5 -10t6.5 -18l203 -471q11 -25 19.5 -31.5t25.5 -6.5v-26h-278zM380 678h-101l91 95h151z" />
    <glyph glyph-name="acircumflex" unicode="&#xe2;" horiz-adv-x="762" 
d="M370 408h-1q-14 -38 -27 -74q-11 -31 -23.5 -65t-21.5 -58q14 -5 31 -8.5t43 -3.5q23 0 42 3.5t33 8.5zM480 0v26q20 0 26.5 6.5t6.5 14.5q0 4 -5 16l-5 12q-26 -7 -57.5 -11.5t-63.5 -4.5q-33 0 -67 5t-59 11l-4 -14q-2 -6 -3 -10.5t-1 -7.5q0 -17 33 -17v-26h-277v26
q17 0 26 7t20 32l204 472q8 19 8 24q0 9 -5.5 15t-16.5 6v26h286v-26q-15 0 -19.5 -6t-4.5 -13q0 -3 1.5 -10t6.5 -18l203 -471q11 -25 19.5 -31.5t25.5 -6.5v-26h-278zM440 678l-57 49l-56 -49h-142l125 94h146l128 -94h-144z" />
    <glyph glyph-name="atilde" unicode="&#xe3;" horiz-adv-x="762" 
d="M370 408h-1q-14 -38 -27 -74q-11 -31 -23.5 -65t-21.5 -58q14 -5 31 -8.5t43 -3.5q23 0 42 3.5t33 8.5zM480 0v26q20 0 26.5 6.5t6.5 14.5q0 4 -5 16l-5 12q-26 -7 -57.5 -11.5t-63.5 -4.5q-33 0 -67 5t-59 11l-4 -14q-2 -6 -3 -10.5t-1 -7.5q0 -17 33 -17v-26h-277v26
q17 0 26 7t20 32l204 472q8 19 8 24q0 9 -5.5 15t-16.5 6v26h286v-26q-15 0 -19.5 -6t-4.5 -13q0 -3 1.5 -10t6.5 -18l203 -471q11 -25 19.5 -31.5t25.5 -6.5v-26h-278zM548 775q-3 -20 -10.5 -37.5t-20 -31.5t-31 -22t-43.5 -8q-21 0 -39.5 4.5t-35.5 9.5q-13 4 -28 9
t-29 5q-17 0 -25 -7.5t-13 -21.5h-63q3 42 31 71t76 29q22 0 40 -4.5t33 -9.5q11 -4 24.5 -9t26.5 -5q34 0 40 28h67z" />
    <glyph glyph-name="adieresis" unicode="&#xe4;" horiz-adv-x="762" 
d="M370 408h-1q-14 -38 -27 -74q-11 -31 -23.5 -65t-21.5 -58q14 -5 31 -8.5t43 -3.5q23 0 42 3.5t33 8.5zM480 0v26q20 0 26.5 6.5t6.5 14.5q0 4 -5 16l-5 12q-26 -7 -57.5 -11.5t-63.5 -4.5q-33 0 -67 5t-59 11l-4 -14q-2 -6 -3 -10.5t-1 -7.5q0 -17 33 -17v-26h-277v26
q17 0 26 7t20 32l204 472q8 19 8 24q0 9 -5.5 15t-16.5 6v26h286v-26q-15 0 -19.5 -6t-4.5 -13q0 -3 1.5 -10t6.5 -18l203 -471q11 -25 19.5 -31.5t25.5 -6.5v-26h-278zM335 727q0 -22 -18 -36.5t-44 -14.5t-43.5 14.5t-17.5 36.5t17.5 36t43.5 14q25 0 43.5 -14t18.5 -36z
M560 727q0 -22 -17 -36.5t-43 -14.5t-44.5 14.5t-18.5 36.5t19 36t44 14q26 0 43 -14t17 -36z" />
    <glyph glyph-name="aring" unicode="&#xe5;" horiz-adv-x="762" 
d="M370 408h-1q-14 -38 -27 -74q-11 -31 -23.5 -65t-21.5 -58q14 -5 31 -8.5t43 -3.5q23 0 42 3.5t33 8.5zM407 723q0 11 -11 20t-26 9t-25.5 -9t-10.5 -20t10.5 -19.5t25.5 -8.5t26 8.5t11 19.5zM480 0v26q20 0 26.5 6.5t6.5 14.5q0 4 -5 16l-5 12q-26 -7 -57.5 -11.5
t-63.5 -4.5q-33 0 -67 5t-59 11l-4 -14q-2 -6 -3 -10.5t-1 -7.5q0 -17 33 -17v-26h-277v26q17 0 26 7t20 32l204 472q8 19 8 24q0 9 -5.5 15t-16.5 6v26h286v-26q-15 0 -19.5 -6t-4.5 -13q0 -3 1.5 -10t6.5 -18l203 -471q11 -25 19.5 -31.5t25.5 -6.5v-26h-278zM453 724
q0 -29 -24 -47.5t-58 -18.5t-59 18.5t-25 47.5t25 47.5t59 18.5t58 -18.5t24 -47.5z" />
    <glyph glyph-name="ae" unicode="&#xe6;" horiz-adv-x="1103" 
d="M495 472h-1q-30 -52 -57 -99q-12 -20 -24 -41t-23.5 -40.5t-21 -36.5t-16.5 -29q11 -5 28 -8t43 -3q23 0 40.5 3.5t31.5 8.5v245zM1043 -11q-12 5 -27 8t-28 3h-535v26q21 0 32 11t11 31v18q-54 -14 -118 -14q-33 0 -63 4t-49 10l-16 -25q-4 -5 -5 -10.5t-1 -8.5
q0 -6 6 -11t21 -5v-26h-267v26q17 0 24.5 8t21.5 31l295 466q6 10 9 18t3 12q0 7 -4.5 14t-18.5 7v26h650q20 0 33 2t24 7l43 -193l-28 -9q-11 25 -25 34.5t-38 9.5h-306v-78h225q41 0 45 39h24v-225h-24q-2 18 -13 29t-32 11h-225v-87h306q26 0 41.5 10.5t25.5 34.5l26 -10
z" />
    <glyph glyph-name="ccedilla" unicode="&#xe7;" horiz-adv-x="670" 
d="M596 2q-6 2 -11 5q-5 2 -11 3.5t-12 1.5q-11 0 -60 -7t-120 -7h-3l-14 -31v-2q7 1 26.5 2t30.5 1q111 0 111 -57q0 -30 -38 -54.5t-121 -24.5q-30 0 -49.5 2.5t-44.5 7.5l16 39q15 -4 27.5 -5.5t29.5 -1.5q36 0 49.5 7.5t13.5 18.5t-10.5 18.5t-33.5 7.5q-17 0 -29 -1
t-26 -4l-21 21l27 59q-68 8 -124 33.5t-96 65.5t-62 93.5t-22 117.5q0 69 27.5 126t76 98t115 63.5t144.5 22.5q31 0 59.5 -2t52.5 -5t41.5 -5t26.5 -2q7 0 13 1t11 3l10 4l52 -204l-29 -9q-18 42 -61.5 58t-126.5 16q-41 0 -79.5 -10t-68 -30.5t-47 -52t-17.5 -74.5
q0 -40 15 -71t43 -52t66.5 -32t86.5 -11q83 0 126.5 15.5t62.5 58.5l29 -9z" />
    <glyph glyph-name="egrave" unicode="&#xe8;" horiz-adv-x="688" 
d="M623 -11q-12 5 -27 8t-28 3h-541v26q22 0 32.5 12t10.5 32v467q0 21 -13 33t-31 12v26h537q20 0 33 2t24 7l44 -193l-27 -9q-11 25 -25.5 34.5t-38.5 9.5h-306v-78h225q41 0 45 39h24v-225h-24q-2 18 -13 29t-32 11h-225v-87h306q26 0 41.5 10.5t25.5 34.5l26 -10z
M352 678l-141 94h151l92 -94h-102z" />
    <glyph glyph-name="eacute" unicode="&#xe9;" horiz-adv-x="688" 
d="M623 -11q-12 5 -27 8t-28 3h-541v26q22 0 32.5 12t10.5 32v467q0 21 -13 33t-31 12v26h537q20 0 33 2t24 7l44 -193l-27 -9q-11 25 -25.5 34.5t-38.5 9.5h-306v-78h225q41 0 45 39h24v-225h-24q-2 18 -13 29t-32 11h-225v-87h306q26 0 41.5 10.5t25.5 34.5l26 -10z
M380 678h-101l91 95h151z" />
    <glyph glyph-name="ecircumflex" unicode="&#xea;" horiz-adv-x="688" 
d="M623 -11q-12 5 -27 8t-28 3h-541v26q22 0 32.5 12t10.5 32v467q0 21 -13 33t-31 12v26h537q20 0 33 2t24 7l44 -193l-27 -9q-11 25 -25.5 34.5t-38.5 9.5h-306v-78h225q41 0 45 39h24v-225h-24q-2 18 -13 29t-32 11h-225v-87h306q26 0 41.5 10.5t25.5 34.5l26 -10z
M395 678l-57 49l-56 -49h-142l125 94h146l128 -94h-144z" />
    <glyph glyph-name="edieresis" unicode="&#xeb;" horiz-adv-x="688" 
d="M623 -11q-12 5 -27 8t-28 3h-541v26q22 0 32.5 12t10.5 32v467q0 21 -13 33t-31 12v26h537q20 0 33 2t24 7l44 -193l-27 -9q-11 25 -25.5 34.5t-38.5 9.5h-306v-78h225q41 0 45 39h24v-225h-24q-2 18 -13 29t-32 11h-225v-87h306q26 0 41.5 10.5t25.5 34.5l26 -10z
M302 727q0 -22 -18 -36.5t-44 -14.5t-43.5 14.5t-17.5 36.5t17.5 36t43.5 14q25 0 43.5 -14t18.5 -36zM527 727q0 -22 -17 -36.5t-43 -14.5t-44.5 14.5t-18.5 36.5t19 36t44 14q26 0 43 -14t17 -36z" />
    <glyph glyph-name="igrave" unicode="&#xec;" horiz-adv-x="336" 
d="M26 0v26q24 0 33.5 11t9.5 32v468q0 20 -11.5 32.5t-31.5 12.5v26h284v-25q-18 0 -31 -11.5t-13 -32.5v-470q0 -43 44 -43v-26h-284zM180 678l-141 94h151l92 -94h-102z" />
    <glyph glyph-name="iacute" unicode="&#xed;" horiz-adv-x="336" 
d="M26 0v26q24 0 33.5 11t9.5 32v468q0 20 -11.5 32.5t-31.5 12.5v26h284v-25q-18 0 -31 -11.5t-13 -32.5v-470q0 -43 44 -43v-26h-284zM170 678h-101l91 95h151z" />
    <glyph glyph-name="icircumflex" unicode="&#xee;" horiz-adv-x="336" 
d="M26 0v26q24 0 33.5 11t9.5 32v468q0 20 -11.5 32.5t-31.5 12.5v26h284v-25q-18 0 -31 -11.5t-13 -32.5v-470q0 -43 44 -43v-26h-284zM226 678l-57 49l-56 -49h-142l125 94h146l128 -94h-144z" />
    <glyph glyph-name="idieresis" unicode="&#xef;" horiz-adv-x="336" 
d="M26 0v26q24 0 33.5 11t9.5 32v468q0 20 -11.5 32.5t-31.5 12.5v26h284v-25q-18 0 -31 -11.5t-13 -32.5v-470q0 -43 44 -43v-26h-284zM118 727q0 -22 -18 -36.5t-44 -14.5t-43.5 14.5t-17.5 36.5t17.5 36t43.5 14q25 0 43.5 -14t18.5 -36zM343 727q0 -22 -17 -36.5
t-43 -14.5t-44.5 14.5t-18.5 36.5t19 36t44 14q26 0 43 -14t17 -36z" />
    <glyph glyph-name="eth" unicode="&#xf0;" horiz-adv-x="791" 
d="M571 306q0 44 -15.5 75.5t-42.5 51t-64 28.5t-80 9q-32 0 -51.5 -0.5t-36.5 -2.5v-106h167v-111h-167v-109q17 -2 42 -3.5t55 -1.5q43 0 78.5 10.5t61 31.5t39.5 53t14 75zM772 305q0 -69 -22 -127t-69.5 -100.5t-121.5 -66.5t-179 -24q-52 0 -101.5 1.5t-94 3.5t-81 4
t-62.5 4v26q22 0 32.5 11t10.5 31v182h-84v111h84v171q0 50 -43 50v26q52 4 139 8.5t191 4.5q91 0 165.5 -22.5t126.5 -64t80.5 -99.5t28.5 -130z" />
    <glyph glyph-name="ntilde" unicode="&#xf1;" horiz-adv-x="769" 
d="M521 0q-1 11 -6.5 26t-16.5 26l-254 271h-1v-254q0 -21 13 -32t31 -11v-26h-261v26q21 0 32 12t11 32v467q0 21 -11 33t-32 12v26h237q-1 -10 3 -22.5t14 -22.5l243 -256h1v230q0 21 -10 33t-32 12v26h261v-26q-20 0 -32 -11.5t-12 -32.5v-469q0 -21 12 -32t32 -11v-26
h-222zM566 775q-3 -20 -10.5 -37.5t-20 -31.5t-31 -22t-43.5 -8q-21 0 -39.5 4.5t-35.5 9.5q-13 4 -28 9t-29 5q-17 0 -25 -7.5t-13 -21.5h-63q3 42 31 71t76 29q22 0 40 -4.5t33 -9.5q11 -4 24.5 -9t26.5 -5q34 0 40 28h67z" />
    <glyph glyph-name="ograve" unicode="&#xf2;" horiz-adv-x="793" 
d="M572 299q0 45 -16.5 77.5t-42.5 53.5t-57 31t-61 10q-32 0 -63.5 -11t-56.5 -32.5t-40.5 -53.5t-15.5 -73q0 -40 16.5 -71t42 -52t56.5 -32t61 -11t61 9.5t57 29.5t42.5 51t16.5 74zM774 301q0 -79 -33 -139t-86.5 -100t-121.5 -60.5t-138 -20.5t-137.5 20.5t-120.5 61
t-85.5 100t-32.5 138.5q0 76 32.5 136.5t86 103t121 65t137.5 22.5t137.5 -21.5t121 -63.5t86.5 -103t33 -139zM413 678l-141 94h151l92 -94h-102z" />
    <glyph glyph-name="oacute" unicode="&#xf3;" horiz-adv-x="793" 
d="M572 299q0 45 -16.5 77.5t-42.5 53.5t-57 31t-61 10q-32 0 -63.5 -11t-56.5 -32.5t-40.5 -53.5t-15.5 -73q0 -40 16.5 -71t42 -52t56.5 -32t61 -11t61 9.5t57 29.5t42.5 51t16.5 74zM774 301q0 -79 -33 -139t-86.5 -100t-121.5 -60.5t-138 -20.5t-137.5 20.5t-120.5 61
t-85.5 100t-32.5 138.5q0 76 32.5 136.5t86 103t121 65t137.5 22.5t137.5 -21.5t121 -63.5t86.5 -103t33 -139zM380 678h-101l91 95h151z" />
    <glyph glyph-name="ocircumflex" unicode="&#xf4;" horiz-adv-x="793" 
d="M572 299q0 45 -16.5 77.5t-42.5 53.5t-57 31t-61 10q-32 0 -63.5 -11t-56.5 -32.5t-40.5 -53.5t-15.5 -73q0 -40 16.5 -71t42 -52t56.5 -32t61 -11t61 9.5t57 29.5t42.5 51t16.5 74zM774 301q0 -79 -33 -139t-86.5 -100t-121.5 -60.5t-138 -20.5t-137.5 20.5t-120.5 61
t-85.5 100t-32.5 138.5q0 76 32.5 136.5t86 103t121 65t137.5 22.5t137.5 -21.5t121 -63.5t86.5 -103t33 -139zM447 678l-57 49l-56 -49h-142l125 94h146l128 -94h-144z" />
    <glyph glyph-name="otilde" unicode="&#xf5;" horiz-adv-x="793" 
d="M572 299q0 45 -16.5 77.5t-42.5 53.5t-57 31t-61 10q-32 0 -63.5 -11t-56.5 -32.5t-40.5 -53.5t-15.5 -73q0 -40 16.5 -71t42 -52t56.5 -32t61 -11t61 9.5t57 29.5t42.5 51t16.5 74zM774 301q0 -79 -33 -139t-86.5 -100t-121.5 -60.5t-138 -20.5t-137.5 20.5t-120.5 61
t-85.5 100t-32.5 138.5q0 76 32.5 136.5t86 103t121 65t137.5 22.5t137.5 -21.5t121 -63.5t86.5 -103t33 -139zM566 775q-3 -20 -10.5 -37.5t-20 -31.5t-31 -22t-43.5 -8q-21 0 -39.5 4.5t-35.5 9.5q-13 4 -28 9t-29 5q-17 0 -25 -7.5t-13 -21.5h-63q3 42 31 71t76 29
q22 0 40 -4.5t33 -9.5q11 -4 24.5 -9t26.5 -5q34 0 40 28h67z" />
    <glyph glyph-name="odieresis" unicode="&#xf6;" horiz-adv-x="793" 
d="M572 299q0 45 -16.5 77.5t-42.5 53.5t-57 31t-61 10q-32 0 -63.5 -11t-56.5 -32.5t-40.5 -53.5t-15.5 -73q0 -40 16.5 -71t42 -52t56.5 -32t61 -11t61 9.5t57 29.5t42.5 51t16.5 74zM774 301q0 -79 -33 -139t-86.5 -100t-121.5 -60.5t-138 -20.5t-137.5 20.5t-120.5 61
t-85.5 100t-32.5 138.5q0 76 32.5 136.5t86 103t121 65t137.5 22.5t137.5 -21.5t121 -63.5t86.5 -103t33 -139zM344 727q0 -22 -18 -36.5t-44 -14.5t-43.5 14.5t-17.5 36.5t17.5 36t43.5 14q25 0 43.5 -14t18.5 -36zM569 727q0 -22 -17 -36.5t-43 -14.5t-44.5 14.5
t-18.5 36.5t19 36t44 14q26 0 43 -14t17 -36z" />
    <glyph glyph-name="divide" unicode="&#xf7;" horiz-adv-x="618" 
d="M389 157q0 -18 -6.5 -33.5t-18 -27.5t-27 -19t-33.5 -7t-33.5 7t-27 19t-18.5 27.5t-7 33.5t7 33.5t18.5 27t27 18t33.5 6.5q35 0 60 -25t25 -60zM80 276v139h458v-139h-458zM389 542q0 -18 -6.5 -33.5t-18 -27t-27 -18.5t-33.5 -7t-33.5 7t-27 18.5t-18.5 27t-7 33.5
t7 33.5t18.5 27t27 18.5t33.5 7t33.5 -7t27 -18.5t18 -27t6.5 -33.5z" />
    <glyph glyph-name="oslash" unicode="&#xf8;" horiz-adv-x="793" 
d="M466 451q-14 6 -31.5 10t-39.5 4q-32 0 -63.5 -10t-56.5 -30.5t-40.5 -51.5t-15.5 -72q0 -37 11 -59.5t27 -40.5zM572 299q0 40 -10.5 63t-24.5 42l-209 -250q26 -13 67 -13q30 0 61 8.5t57 27.5t42.5 49t16.5 73zM774 301q0 -79 -33 -138t-86.5 -98t-121.5 -58.5
t-138 -19.5q-51 0 -93 8t-85 26l-74 -89l-64 53l63 77q-25 18 -47.5 41.5t-39 53t-26.5 65.5t-10 79q0 76 32.5 135.5t86 101t121 63t137.5 21.5q51 0 96.5 -10t85.5 -27l66 79l68 -49l-61 -72q25 -17 47 -41t39 -54.5t27 -67.5t10 -79z" />
    <glyph glyph-name="ugrave" unicode="&#xf9;" horiz-adv-x="774" 
d="M750 582q-21 0 -32.5 -12t-11.5 -33v-342q0 -29 2.5 -41t8.5 -21q-27 -30 -60 -57.5t-73 -48.5t-88 -33.5t-105 -12.5t-105.5 11.5t-90 32t-76 48.5t-63.5 60q6 10 8.5 22t2.5 40v343q0 21 -12.5 32.5t-30.5 11.5v26h283v-26q-21 0 -32 -12.5t-11 -32.5v-306
q0 -20 10.5 -36.5t27.5 -28.5t40 -19t49 -7q27 0 52 6t44.5 18t31.5 29t12 39v306q0 21 -12 32.5t-32 11.5v26h263v-26zM413 678l-141 94h151l92 -94h-102z" />
    <glyph glyph-name="uacute" unicode="&#xfa;" horiz-adv-x="774" 
d="M750 582q-21 0 -32.5 -12t-11.5 -33v-342q0 -29 2.5 -41t8.5 -21q-27 -30 -60 -57.5t-73 -48.5t-88 -33.5t-105 -12.5t-105.5 11.5t-90 32t-76 48.5t-63.5 60q6 10 8.5 22t2.5 40v343q0 21 -12.5 32.5t-30.5 11.5v26h283v-26q-21 0 -32 -12.5t-11 -32.5v-306
q0 -20 10.5 -36.5t27.5 -28.5t40 -19t49 -7q27 0 52 6t44.5 18t31.5 29t12 39v306q0 21 -12 32.5t-32 11.5v26h263v-26zM380 678h-101l91 95h151z" />
    <glyph glyph-name="ucircumflex" unicode="&#xfb;" horiz-adv-x="774" 
d="M750 582q-21 0 -32.5 -12t-11.5 -33v-342q0 -29 2.5 -41t8.5 -21q-27 -30 -60 -57.5t-73 -48.5t-88 -33.5t-105 -12.5t-105.5 11.5t-90 32t-76 48.5t-63.5 60q6 10 8.5 22t2.5 40v343q0 21 -12.5 32.5t-30.5 11.5v26h283v-26q-21 0 -32 -12.5t-11 -32.5v-306
q0 -20 10.5 -36.5t27.5 -28.5t40 -19t49 -7q27 0 52 6t44.5 18t31.5 29t12 39v306q0 21 -12 32.5t-32 11.5v26h263v-26zM440 678l-57 49l-56 -49h-142l125 94h146l128 -94h-144z" />
    <glyph glyph-name="udieresis" unicode="&#xfc;" horiz-adv-x="774" 
d="M750 582q-21 0 -32.5 -12t-11.5 -33v-342q0 -29 2.5 -41t8.5 -21q-27 -30 -60 -57.5t-73 -48.5t-88 -33.5t-105 -12.5t-105.5 11.5t-90 32t-76 48.5t-63.5 60q6 10 8.5 22t2.5 40v343q0 21 -12.5 32.5t-30.5 11.5v26h283v-26q-21 0 -32 -12.5t-11 -32.5v-306
q0 -20 10.5 -36.5t27.5 -28.5t40 -19t49 -7q27 0 52 6t44.5 18t31.5 29t12 39v306q0 21 -12 32.5t-32 11.5v26h263v-26zM335 727q0 -22 -18 -36.5t-44 -14.5t-43.5 14.5t-17.5 36.5t17.5 36t43.5 14q25 0 43.5 -14t18.5 -36zM560 727q0 -22 -17 -36.5t-43 -14.5t-44.5 14.5
t-18.5 36.5t19 36t44 14q26 0 43 -14t17 -36z" />
    <glyph glyph-name="yacute" unicode="&#xfd;" horiz-adv-x="819" 
d="M812 582q-18 0 -30 -8.5t-27 -31.5l-248 -362v-111q0 -43 44 -43v-26h-283v26q24 0 33.5 11t9.5 32v111l-249 362q-16 23 -26 31.5t-29 8.5v26h317v-26q-18 0 -26 -7t-8 -16q0 -7 7 -17l123 -191h2l115 188q6 10 8 14.5t2 11.5q0 6 -7 11.5t-23 5.5v26h295v-26zM438 678
h-101l91 95h151z" />
    <glyph glyph-name="thorn" unicode="&#xfe;" horiz-adv-x="700" 
d="M484 295q0 24 -13.5 38.5t-34.5 22t-48 10t-54 2.5h-32.5t-35.5 -2v-142q14 -2 36.5 -3t33.5 -1q28 0 55 3t47.5 11.5t33 23t12.5 37.5zM681 301q0 -53 -23 -93.5t-66 -68t-104 -41.5t-137 -14h-19t-23 0.5t-23 1t-20 1.5v-12q0 -28 11 -38.5t33 -10.5v-26h-284v26
q21 0 32 9t11 37v464q0 46 -43 46v26h285v-26q-21 0 -33 -11.5t-12 -33.5v-17q17 1 30 1h28q86 0 152.5 -12t112 -38.5t69 -68.5t23.5 -101z" />
    <glyph glyph-name="ydieresis" unicode="&#xff;" horiz-adv-x="819" 
d="M812 582q-18 0 -30 -8.5t-27 -31.5l-248 -362v-111q0 -43 44 -43v-26h-283v26q24 0 33.5 11t9.5 32v111l-249 362q-16 23 -26 31.5t-29 8.5v26h317v-26q-18 0 -26 -7t-8 -16q0 -7 7 -17l123 -191h2l115 188q6 10 8 14.5t2 11.5q0 6 -7 11.5t-23 5.5v26h295v-26zM350 727
q0 -22 -18 -36.5t-44 -14.5t-43.5 14.5t-17.5 36.5t17.5 36t43.5 14q25 0 43.5 -14t18.5 -36zM575 727q0 -22 -17 -36.5t-43 -14.5t-44.5 14.5t-18.5 36.5t19 36t44 14q26 0 43 -14t17 -36z" />
    <glyph glyph-name="OE" unicode="&#x152;" horiz-adv-x="1440" 
d="M686 508q-36 46 -88 67t-101 21q-42 0 -83 -13.5t-73.5 -40.5t-52.5 -68.5t-20 -97.5q0 -54 21.5 -94.5t54.5 -67.5t73.5 -40t78.5 -13q49 0 101.5 20t88.5 65v262zM1361 -10q-13 5 -30 7.5t-32 2.5h-664q-67 -16 -139 -16q-86 0 -169 24.5t-148 73.5t-104.5 122.5
t-39.5 171.5q0 94 40 169t105 126.5t148.5 79t169.5 27.5q35 0 69 -4.5t68 -12.5h658q21 0 37.5 2.5t27.5 6.5l49 -229l-27 -10q-14 29 -34.5 43.5t-52.5 14.5h-380v-119h280q27 0 43.5 10t16.5 35h28v-261h-28q0 22 -12 34t-48 12h-280v-129h374q38 0 60 16t35 45l28 -12z
" />
    <glyph glyph-name="oe" unicode="&#x153;" horiz-adv-x="1142" 
d="M530 411q-27 28 -63.5 41t-71.5 13q-32 0 -63.5 -10t-56.5 -30.5t-40.5 -51.5t-15.5 -72q0 -40 16.5 -70t42 -50t56.5 -30t61 -10q35 0 71.5 12t63.5 39v219zM1083 -11q-12 5 -27 8t-28 3h-518q-28 -7 -57 -10t-58 -3q-70 0 -137.5 19.5t-120.5 58.5t-85.5 98t-32.5 138
q0 76 32.5 135.5t86 101t121 63t137.5 21.5q56 0 114 -14h513q20 0 33 2t24 7l44 -193l-28 -9q-11 25 -25 34.5t-38 9.5h-306v-78h225q41 0 45 39h24v-225h-24q-2 18 -13 29t-32 11h-225v-87h306q26 0 41.5 10.5t25.5 34.5l26 -10z" />
    <glyph glyph-name="Scaron" unicode="&#x160;" horiz-adv-x="814" 
d="M780 247q0 -136 -102.5 -202t-301.5 -66q-43 0 -82 5t-70 11t-52 11t-27 5q-20 0 -40 -5l-64 262l27 9q12 -31 33.5 -56t54 -42t78.5 -26.5t108 -9.5q57 0 95 5.5t60 15.5t31 23t9 28q0 24 -24.5 38t-80.5 27q-27 6 -48.5 11t-41.5 10t-41.5 10t-49.5 12q-42 10 -79.5 27
t-65.5 43t-44.5 62t-16.5 84q0 59 28 105t79.5 77t124.5 47t163 16q44 0 78 -3.5t58.5 -7.5t39.5 -7.5t21 -3.5q10 0 22 1t22 4l59 -244l-25 -8q-12 26 -37 46.5t-59 35t-75.5 22.5t-87.5 8q-50 0 -82.5 -5t-52 -13.5t-27.5 -20t-8 -24.5q0 -24 28.5 -37t80.5 -26t98 -24
t89 -21q100 -23 149 -78.5t49 -130.5zM517 803h-146l-127 94h144l56 -49l56 49h142z" />
    <glyph glyph-name="scaron" unicode="&#x161;" horiz-adv-x="648" 
d="M630 200q0 -112 -86 -166t-245 -54q-34 0 -65.5 4.5t-56 9.5t-41.5 9.5t-22 4.5q-19 0 -37 -6l-55 220l29 9q9 -25 24 -44.5t40.5 -33.5t63 -21.5t93.5 -7.5q47 0 76 4.5t45 12t21.5 16.5t5.5 17q0 16 -16 24.5t-62 19.5q-40 9 -71 16.5t-73 18.5q-37 9 -68 23t-54 35
t-36 50.5t-13 69.5q0 49 22.5 86t64.5 62t101 37.5t131 12.5q71 0 109 -9.5t49 -9.5q10 0 21 1t19 5l52 -206l-28 -8q-10 21 -25.5 37.5t-40 28t-59.5 17.5t-84 6q-41 0 -65.5 -4t-37.5 -10.5t-17 -14t-4 -14.5q0 -16 20 -24.5t61 -17.5q43 -10 79 -18.5t70 -16.5
q74 -18 119.5 -63.5t45.5 -107.5zM392 678h-146l-127 94h144l56 -49l56 49h142z" />
    <glyph glyph-name="Ydieresis" unicode="&#x178;" horiz-adv-x="1013" 
d="M1001 733q-24 0 -42 -12t-37 -41l-304 -457v-131q0 -35 12.5 -49.5t47.5 -14.5v-28h-346v28q35 0 47.5 14.5t12.5 49.5v133l-304 452q-21 32 -37 44t-39 12v28h387v-28q-44 0 -44 -35q0 -14 10 -30l154 -244h2l145 241q8 13 11 20.5t3 18.5q0 29 -45 29v28h366v-28z
M451 854q0 -22 -18 -36.5t-44 -14.5t-43.5 14.5t-17.5 36.5t17.5 36t43.5 14q25 0 43.5 -14t18.5 -36zM676 854q0 -22 -17 -36.5t-43 -14.5t-44.5 14.5t-18.5 36.5t19 36t44 14q26 0 43 -14t17 -36z" />
    <glyph glyph-name="Zcaron" unicode="&#x17d;" horiz-adv-x="885" 
d="M800 -10q-15 5 -33 7.5t-33 2.5h-657l-42 76l425 510l-1 3h-313q-29 0 -49 -15.5t-32 -41.5l-24 10l49 230q14 -5 29.5 -8t39.5 -3h648l37 -69l-426 -518l1 -3h326q28 0 49 17.5t31 41.5l25 -10zM530 803h-146l-127 94h144l56 -49l56 49h142z" />
    <glyph glyph-name="zcaron" unicode="&#x17e;" horiz-adv-x="694" 
d="M633 -10q-14 6 -29.5 8t-28.5 2h-518l-39 67l335 392h-245q-22 0 -35.5 -11.5t-23.5 -33.5l-26 10l43 195q14 -5 27 -8t34 -3h512l33 -63l-336 -397h257q19 0 34.5 12.5t23.5 32.5l25 -10zM456 678h-146l-127 94h144l56 -49l56 49h142z" />
    <glyph glyph-name="florin" unicode="&#x192;" 
d="M756 573q-17 33 -42.5 46t-67.5 13q-19 0 -32 -6.5t-21 -16.5t-12.5 -23.5t-5.5 -26.5l-11 -114h122v-100h-132l-29 -309q-8 -90 -65 -133t-160 -43q-33 0 -56.5 5.5t-43.5 5.5q-17 0 -28 -2t-21 -4l-43 180l33 10q17 -35 46 -48.5t67 -13.5q34 0 50.5 21t19.5 51l27 280
h-101v100h111l15 151q8 81 63.5 125t158.5 44q32 0 58 -5t46 -5q17 0 25.5 2t18.5 4l43 -175z" />
    <glyph glyph-name="circumflex" unicode="&#x2c6;" horiz-adv-x="793" 
d="M452 678l-57 49l-56 -49h-142l125 94h146l128 -94h-144z" />
    <glyph glyph-name="tilde" unicode="&#x2dc;" horiz-adv-x="793" 
d="M566 775q-3 -20 -10.5 -37.5t-20 -31.5t-31 -22t-43.5 -8q-21 0 -39.5 4.5t-35.5 9.5q-13 5 -28 9.5t-29 4.5q-17 0 -25 -7.5t-13 -21.5h-63q3 42 31 71t76 29q22 0 40 -4.5t33 -9.5q11 -5 24.5 -9.5t26.5 -4.5q34 0 40 28h67z" />
    <glyph glyph-name="endash" unicode="&#x2013;" horiz-adv-x="486" 
d="M40 273v146h406v-146h-406z" />
    <glyph glyph-name="emdash" unicode="&#x2014;" horiz-adv-x="790" 
d="M40 273v146h710v-146h-710z" />
    <glyph glyph-name="quoteleft" unicode="&#x2018;" horiz-adv-x="266" 
d="M238 640q0 -21 -8.5 -38t-22.5 -29.5t-32.5 -19t-38.5 -6.5q-54 0 -81 33.5t-27 84.5q0 36 13 66.5t36.5 55t55.5 43.5t70 32l34 -55q-39 -14 -58.5 -35t-27.5 -35q35 -5 61 -27t26 -70z" />
    <glyph glyph-name="quoteright" unicode="&#x2019;" horiz-adv-x="266" 
d="M238 661q0 -35 -13 -65t-36 -55t-55 -44t-70 -32l-34 55q39 14 58.5 34.5t27.5 34.5q-35 5 -61.5 27.5t-26.5 69.5q0 21 8.5 38.5t22.5 29.5t33 18.5t39 6.5q54 0 80.5 -32t26.5 -86z" />
    <glyph glyph-name="quotesinglbase" unicode="&#x201a;" horiz-adv-x="266" 
d="M238 65q0 -37 -13 -67.5t-36 -55t-55 -43t-70 -31.5l-34 55q39 14 58.5 34.5t27.5 34.5q-35 4 -61.5 26.5t-26.5 70.5q0 22 8.5 39t22.5 29t33 18.5t39 6.5q54 0 80.5 -34t26.5 -83z" />
    <glyph glyph-name="quotedblleft" unicode="&#x201c;" horiz-adv-x="515" 
d="M238 640q0 -21 -8.5 -38.5t-22.5 -29.5t-32.5 -18.5t-38.5 -6.5q-54 0 -81 32t-27 86q0 36 13 66.5t36.5 55t55.5 43.5t70 32l34 -55q-39 -14 -58.5 -35t-27.5 -35q35 -5 61 -27t26 -70zM487 640q0 -22 -8.5 -39t-22.5 -29t-32.5 -18.5t-38.5 -6.5q-54 0 -81 32.5
t-27 85.5q0 36 13 66.5t36.5 55t55.5 43.5t70 32l33 -55q-39 -14 -58 -35t-27 -35q18 -2 33.5 -8.5t27.5 -18t19 -29t7 -41.5z" />
    <glyph glyph-name="quotedblright" unicode="&#x201d;" horiz-adv-x="515" 
d="M238 662q0 -36 -13 -66t-36 -55t-55 -44t-70 -32l-34 56q39 14 58.5 34.5t27.5 34.5q-35 4 -61.5 26.5t-26.5 70.5q0 21 8.5 38.5t22.5 29.5t33 18.5t39 6.5q54 0 80.5 -32t26.5 -86zM487 662q0 -37 -13 -67.5t-36 -55t-55 -43t-70 -31.5l-34 56q39 14 58.5 34.5
t27.5 34.5q-35 5 -61.5 27.5t-26.5 69.5q0 21 8.5 38.5t22.5 29.5t33 18.5t39 6.5q54 0 80.5 -32t26.5 -86z" />
    <glyph glyph-name="quotedblbase" unicode="&#x201e;" horiz-adv-x="515" 
d="M238 65q0 -37 -13 -67.5t-36 -55t-55 -43t-70 -31.5l-34 55q39 14 58.5 34.5t27.5 34.5q-35 4 -61.5 26.5t-26.5 70.5q0 22 8.5 39t22.5 29t33 18.5t39 6.5q54 0 80.5 -34t26.5 -83zM487 65q0 -38 -13 -68.5t-36 -54.5t-55 -42.5t-70 -31.5l-34 55q39 14 58.5 34.5
t27.5 34.5q-35 4 -61.5 26.5t-26.5 70.5q0 22 8.5 39t22.5 29t33 18.5t39 6.5q54 0 80.5 -34t26.5 -83z" />
    <glyph glyph-name="dagger" unicode="&#x2020;" horiz-adv-x="579" 
d="M519 430q-2 14 -15.5 21.5t-35.5 12.5l-121 27l48 -142l-65 -402h-79l-66 402l46 142l-119 -27q-22 -5 -35.5 -12.5t-15.5 -20.5h-23v73v24v122h23q2 -13 14.5 -20t36.5 -12l119 -27l-32 112q-5 16 -11.5 22.5t-27.5 8.5v27h107h63h91v-27q-21 -2 -30 -9.5t-13 -21.5
l-31 -112l121 28q25 6 36 12.5t15 19.5h22v-133v-24v-64h-22z" />
    <glyph glyph-name="daggerdbl" unicode="&#x2021;" horiz-adv-x="579" 
d="M519 59q-2 14 -14 20.5t-37 12.5l-118 27l29 -112q4 -14 12 -22t29 -10v-28h-91h-62h-108v28q21 2 28 9t12 23l31 112l-118 -27q-24 -5 -36.5 -12t-14.5 -20h-23v218h23q2 -13 12.5 -19t38.5 -12l118 -27l-47 140l47 130l-118 -27q-25 -6 -37 -12.5t-14 -19.5h-23v219h23
q2 -13 12 -19.5t39 -12.5l118 -26l-31 110q-5 16 -12 22.5t-28 8.5v28h261v-28q-21 -2 -29 -9.5t-12 -21.5l-29 -109l118 26q27 6 37 12.5t14 19.5h22v-221h-22q-2 14 -14 21.5t-37 12.5l-118 26l46 -130l-46 -139l118 27q29 7 38 12.5t13 18.5h22v-220h-22z" />
    <glyph glyph-name="bullet" unicode="&#x2022;" horiz-adv-x="455" 
d="M417 370q0 -39 -15 -74t-40.5 -60.5t-60.5 -40.5t-74 -15t-73.5 15t-60 40.5t-40.5 60.5t-15 74t15 74t40.5 60.5t60 40.5t73.5 15t74 -15t60.5 -40.5t40.5 -60.5t15 -74z" />
    <glyph glyph-name="ellipsis" unicode="&#x2026;" horiz-adv-x="803" 
d="M244 83q0 -48 -30.5 -73t-73.5 -25t-74.5 25t-31.5 73q0 22 8.5 40.5t23 31.5t34 20t40.5 7q43 0 73.5 -27t30.5 -72zM506 83q0 -48 -30.5 -73t-73.5 -25t-74.5 25t-31.5 73q0 22 8.5 40.5t23 31.5t34 20t40.5 7q43 0 73.5 -27t30.5 -72zM769 83q0 -48 -31 -73t-74 -25
t-74 25t-31 73q0 45 31 72t74 27t74 -27t31 -72z" />
    <glyph glyph-name="perthousand" unicode="&#x2030;" horiz-adv-x="1721" 
d="M365 570q0 16 -6 31.5t-17 27.5t-27 19t-37 7t-37 -7t-27 -19t-16.5 -27.5t-5.5 -31.5t5.5 -31.5t16.5 -27.5t27 -19.5t37 -7.5t37 7.5t27 19.5t17 27.5t6 31.5zM986 192q0 16 -5.5 31.5t-16.5 27.5t-27 19.5t-37 7.5t-36.5 -7.5t-26.5 -19.5t-16.5 -27.5t-5.5 -31.5
t5.5 -31.5t16.5 -27.5t26.5 -19t36.5 -7t37 7t27 19t16.5 27.5t5.5 31.5zM1529 192q0 16 -5.5 31.5t-16.5 27.5t-27 19.5t-37 7.5t-36.5 -7.5t-26.5 -19.5t-16.5 -27.5t-5.5 -31.5t5.5 -31.5t16.5 -27.5t26.5 -19t36.5 -7t37 7t27 19t16.5 27.5t5.5 31.5zM533 570
q0 -44 -21.5 -81t-57 -64t-81.5 -42.5t-95 -15.5t-94.5 15.5t-81 42.5t-57 64t-21.5 81t21.5 81t57 64t81 42t94.5 15t95 -15t81.5 -42t57 -64t21.5 -81zM387 -9h-176l574 782h178zM1154 192q0 -44 -21.5 -81t-56.5 -63.5t-81 -41.5t-95 -15t-95 15t-81.5 41.5t-57 63.5
t-21.5 81t21.5 81.5t57 64.5t81.5 42.5t95 15.5t95 -15.5t81.5 -42.5t56.5 -64.5t21 -81.5zM1697 192q0 -44 -21.5 -81t-56.5 -63.5t-81 -41.5t-95 -15t-95 15t-81.5 41.5t-57 63.5t-21.5 81t21.5 81.5t57 64.5t81.5 42.5t95 15.5t95 -15.5t81.5 -42.5t56.5 -64.5t21 -81.5z
" />
    <glyph glyph-name="guilsinglleft" unicode="&#x2039;" horiz-adv-x="304" 
d="M123 133l-95 186v9l95 181h153l-99 -187l99 -189h-153z" />
    <glyph glyph-name="guilsinglright" unicode="&#x203a;" horiz-adv-x="304" 
d="M181 133h-153l100 189l-100 187h153l95 -181v-9z" />
    <glyph glyph-name="Euro" unicode="&#x20ac;" 
d="M795 -6q-6 2 -15.5 4.5t-20.5 2.5q-13 0 -69.5 -8.5t-145.5 -8.5q-84 0 -153.5 21t-123.5 59.5t-91 93.5t-55 123h-102l26 78h65q0 6 -0.5 11t-0.5 11q0 8 0.5 15t0.5 13h-91l26 77h79q18 64 55.5 117.5t91.5 91.5t123 59.5t150 21.5q39 0 73.5 -2.5t62.5 -6t48.5 -6
t31.5 -2.5t21 2.5t15 4.5l54 -224l-25 -10q-11 20 -27.5 35t-42.5 24.5t-62.5 14t-87.5 4.5q-77 0 -137 -30.5t-99 -93.5h343l-26 -77h-342q-2 -7 -2 -14v-15q0 -5 0.5 -10.5t0.5 -10.5h369l-26 -78h-325q35 -65 93.5 -98t149.5 -33q51 0 87.5 5t62.5 14.5t43.5 24.5
t29.5 35l24 -9z" />
    <glyph glyph-name="trademark" unicode="&#x2122;" horiz-adv-x="693" 
d="M289 680q-8 21 -25 21h-62v-151q0 -17 18 -17v-15h-114v15q17 0 17 17v151h-59q-10 0 -16 -5t-11 -15l-17 6l17 79q5 -2 10.5 -3.5t13.5 -1.5h204q8 0 13.5 1.5t10.5 3.5l17 -79zM546 518v15q17 0 17 17v90h-2l-71 -115h-18l-71 113h-2v-88q0 -17 18 -17v-15h-105v15
q18 0 18 17v176q0 18 -18 18v17h101q0 -9 6 -18l69 -107h2l64 107q6 10 6 18h99v-17q-8 0 -12.5 -5t-4.5 -13v-176q0 -17 17 -17v-15h-113z" />
    </font>
</defs>
</svg>
